<svg xmlns="http://www.w3.org/2000/svg"><symbol viewBox="0 0 87.5 16" id="charcoal-logo"><title>charcoal-logo</title> <g> <path d="M0,8c0-4.6,3-8,7.6-8c1.8,0,3.3,0.5,4.4,1.4c1.3,1,2.1,2.5,2.3,4.2h-3.8c-0.2-1.4-1.3-2.4-2.9-2.4C5,3.2,3.9,5.2,3.9,8
		c0,2.8,1.4,4.9,3.7,4.9c1.7,0,2.8-1.1,3-2.6h3.8c-0.1,1.5-0.8,2.9-1.8,3.9C11.3,15.4,9.8,16,7.6,16C3.1,16,0,12.6,0,8z"/> <path d="M15.4,0.3h3.5V6h0.1c0.8-1.1,1.7-1.7,3.3-1.7c2.4,0,3.8,1.7,3.8,4.2v7.2h-3.5V9.2c0-1.2-0.6-2-1.7-2c-1.2,0-1.9,1-1.9,2.3
		v6.1h-3.5V0.3z"/> <path d="M27.2,12.6c0-2.4,1.9-3.2,4.2-3.5c2.1-0.3,2.8-0.5,2.8-1.2c0-0.7-0.5-1.2-1.5-1.2c-1.1,0-1.7,0.5-1.8,1.4h-3.2
		c0.1-2,1.7-3.8,5-3.8c1.7,0,2.8,0.3,3.6,0.9c0.9,0.7,1.4,1.8,1.4,3.1v5.5c0,0.9,0.1,1.4,0.4,1.6v0.2h-3.4c-0.2-0.2-0.3-0.7-0.4-1.2
		h0c-0.6,0.9-1.6,1.5-3.3,1.5C28.7,15.9,27.2,14.8,27.2,12.6z M34.2,11.7v-1.3c-0.5,0.2-1.1,0.4-1.8,0.6c-1.4,0.3-1.9,0.6-1.9,1.5
		c0,0.9,0.6,1.2,1.5,1.2C33.3,13.7,34.2,12.9,34.2,11.7z"/> <path d="M39.2,4.7h3.4v1.7h0.1c0.8-1.3,1.7-1.9,3-1.9c0.3,0,0.5,0,0.7,0.1v3h-0.1c-2.1-0.3-3.5,0.8-3.5,3.1v4.9h-3.5V4.7z"/> <path d="M46.4,10.2c0-3.3,2.3-5.8,5.8-5.8c3,0,4.9,1.7,5.2,4.2H54c-0.2-1-0.8-1.6-1.8-1.6c-1.5,0-2.3,1.2-2.3,3.2
		c0,2,0.8,3.2,2.3,3.2c1.1,0,1.8-0.6,1.9-1.9h3.4C57.4,14,55.4,16,52.3,16C48.7,16,46.4,13.5,46.4,10.2z"/> <path d="M58,10.2c0-3.3,2.4-5.8,5.9-5.8c3.5,0,5.9,2.5,5.9,5.8c0,3.3-2.3,5.8-5.9,5.8C60.4,16,58,13.5,58,10.2z M66.2,10.2
		c0-2-0.8-3.4-2.3-3.4c-1.5,0-2.3,1.4-2.3,3.4s0.8,3.3,2.3,3.3C65.4,13.5,66.2,12.2,66.2,10.2z"/> <path d="M70.5,12.6c0-2.4,1.9-3.2,4.2-3.5c2.1-0.3,2.8-0.5,2.8-1.2c0-0.7-0.5-1.2-1.5-1.2c-1.1,0-1.7,0.5-1.8,1.4H71
		c0.1-2,1.7-3.8,5-3.8c1.7,0,2.8,0.3,3.6,0.9c0.9,0.7,1.4,1.8,1.4,3.1v5.5c0,0.9,0.1,1.4,0.4,1.6v0.2h-3.4c-0.2-0.2-0.3-0.7-0.4-1.2
		h0c-0.6,0.9-1.6,1.5-3.3,1.5C72,15.9,70.5,14.8,70.5,12.6z M77.6,11.7v-1.3c-0.5,0.2-1.1,0.4-1.8,0.6c-1.4,0.3-1.9,0.6-1.9,1.5
		c0,0.9,0.6,1.2,1.5,1.2C76.7,13.7,77.6,12.9,77.6,11.7z"/> <path d="M85.9,11.3c0,0.5,0,0.9,0,1.2c0.1,0.7,0.4,0.9,1.6,0.8v2.4c-0.7,0.1-1.4,0.1-2.1,0.1c-1.7,0-2.8-0.6-2.9-2.4
		c-0.1-0.6-0.1-1.2-0.1-2.1v-11h3.5V11.3z"/> </g> </symbol><symbol viewBox="-292.5 379.5 35 35" id="icon-alerts"><title>icon-alerts</title> <g> <path d="M-260.8,404L-260.8,404L-260.8,404c0-0.1,0-0.2,0-0.2l0,0v-0.1c0,0,0-0.1-0.1-0.1c0,0,0,0-0.1-0.1c0,0,0-0.1-0.1-0.1
		l-3.6-3.6v-6.9c0-5.3-4.1-9.8-9.3-10.3v-1.9c0-0.6-0.5-1.2-1.2-1.2c-0.6,0-1.2,0.5-1.2,1.2v2c-5.2,0.6-9.3,5-9.3,10.3v7.2l-3.3,3.3
		c0,0,0,0.1-0.1,0.2c0,0,0,0,0,0.1c0,0.1,0,0.1-0.1,0.2c0,0.1,0,0.1,0,0.2v4.8c0,0.6,0.5,1.2,1.2,1.2h7.4c0.6,2.4,2.8,4.3,5.3,4.3
		c2.7,0,4.9-1.9,5.3-4.3h7.8c0.6,0,1.2-0.5,1.2-1.2L-260.8,404C-260.8,404.2-260.8,404.2-260.8,404z M-275.1,412.1
		c-1.4,0-2.6-0.8-3-2.1h5.9C-272.7,411.2-273.8,412.1-275.1,412.1z M-263.1,407.8h-23.7v-3.1l3.3-3.3l0.1-0.1c0,0,0-0.1,0.1-0.1
		c0,0,0-0.1,0.1-0.1c0,0,0,0,0-0.1c0,0,0,0,0-0.1v-0.1c0-0.1,0-0.1,0-0.2v-7.7c0-4.4,3.6-8.1,8.1-8.1c4.4,0,8.1,3.6,8.1,8.1v7.3v0.1
		v0.1v0.1c0,0,0,0,0,0.1c0,0,0,0,0,0.1s0.1,0.2,0.2,0.3l0,0l3.6,3.6V407.8L-263.1,407.8z"/> <path d="M-266.7,401.1L-266.7,401.1C-266.7,401-266.7,401-266.7,401.1C-266.7,401-266.7,401-266.7,401.1z"/> </g> </symbol><symbol viewBox="-292.5 379.5 35 35" id="icon-config"><title>icon-config</title> <g> <g> <path d="M-274.9,383.1c0.3,0,0.7,0,0.9,0c0.6,0,0.5,3.4,1.2,3.5c0.5,0.1,2.7,0.9,3.2,1.2h0.1c0.6,0,2.4-2,2.9-2h0.1
			c0.2,0.2,1.1,0.9,1.3,1.1c0.4,0.4-1.8,3-1.4,3.4c0.3,0.4,1.5,2.4,1.7,2.9c0.1,0.2,0.5,0.2,1.2,0.2c0.4,0,1,0,1.4,0
			c0.6,0,1.1,0,1.2,0.3s0.3,1.4,0.3,1.6c0,0.6-3.2,1.1-3.3,1.7c0,0.5-0.4,2.8-0.5,3.3c-0.2,0.5,2.8,2.2,2.5,2.8
			c-0.1,0.2-0.6,1.2-0.9,1.5c0,0.1-0.1,0.1-0.2,0.1c-0.6,0-2.5-1-3.1-1c-0.1,0-0.2,0-0.2,0.1c-0.4,0.4-2.1,1.9-2.6,2.1
			c-0.5,0.3,0.7,3.5,0.1,3.7c-0.2,0.1-1.3,0.5-1.6,0.5l0,0c-0.6,0-1.6-3-2.2-3l0,0c-0.3,0-1,0.1-1.7,0.1s-1.4,0-1.7-0.1l0,0
			c-0.6,0-1.6,3-2.2,3l0,0c-0.3-0.1-1.3-0.4-1.6-0.5c-0.7-0.1,0.4-3.3-0.1-3.6c-0.5-0.3-2.2-1.7-2.6-2.1c0-0.1-0.1-0.1-0.2-0.1
			c-0.7,0-2.5,1-3.1,1c-0.1,0-0.2,0-0.2-0.1c-0.2-0.2-0.7-1.2-0.9-1.5c-0.3-0.5,2.7-2.1,2.5-2.8c-0.2-0.5-0.5-2.8-0.5-3.3
			c0-0.6-3.3-1.1-3.3-1.7c0-0.3,0.2-1.4,0.3-1.6c0-0.2,0.4-0.2,1.1-0.2c0.4,0,1,0,1.4,0c0.6,0,1.1,0,1.2-0.2c0.1-0.5,1.3-2.6,1.7-3
			c0.3-0.4-1.9-3-1.5-3.4c0.2-0.2,1.1-1,1.3-1.1h0.1c0.6,0,2.4,2,2.9,2h0.1c0.5-0.3,2.6-1.1,3.2-1.2s0.5-3.5,1.2-3.5
			C-275.6,383.2-275.2,383.1-274.9,383.1 M-274.9,381c-0.2,0-0.7,0-1,0c-0.5,0-1.8,0.3-2.4,2.1c-0.1,0.4-0.2,1-0.3,1.5
			c0,0.1,0,0.2,0,0.3c-0.4,0.1-1,0.3-1.4,0.5c-0.1-0.1-0.2-0.1-0.2-0.2c-1-0.9-1.8-1.6-2.9-1.6c-0.5,0-1.1,0.2-1.5,0.5
			c-0.2,0.1-1.2,0.9-1.5,1.2c-0.4,0.4-1.2,1.5-0.3,3.2c0.2,0.4,0.4,0.9,0.7,1.3c0,0.1,0,0.2,0.1,0.2c-0.2,0.4-0.5,0.9-0.7,1.3
			c-0.1,0-0.2,0-0.3,0c-0.2,0-0.5,0-0.7,0c-0.5,0-0.9,0-1.2,0.1c-1.6,0.3-2,1.6-2.1,1.9c0,0-0.3,1.4-0.3,1.9
			c-0.1,0.6,0.1,1.8,1.7,2.7c0.4,0.2,0.9,0.3,1.4,0.5c0.1,0,0.2,0.1,0.3,0.1c0.1,0.4,0.1,1,0.2,1.5c-0.1,0.1-0.2,0.1-0.2,0.2
			c-0.4,0.3-0.7,0.6-1.1,1c-1.4,1.4-1,2.7-0.6,3.2c0,0,0.6,1.3,1,1.7c0.4,0.6,1.2,1.1,2,1.1c0.7,0,1.5-0.3,2.4-0.6
			c0.1,0,0.2-0.1,0.3-0.1c0.3,0.3,0.7,0.6,1.1,1c0,0.1,0,0.2-0.1,0.3c-0.1,0.5-0.2,1-0.2,1.5c-0.2,1.9,1,2.7,1.5,2.9
			c0.3,0.1,1.4,0.5,1.8,0.6c0.2,0.1,0.4,0.1,0.6,0.1c1.6,0,2.4-1.4,3-2.6c0-0.1,0.1-0.2,0.1-0.3c0.2,0,0.5,0,0.7,0s0.4,0,0.7,0
			c0.1,0.1,0.1,0.2,0.1,0.3c0.6,1.2,1.4,2.6,3,2.6c0.2,0,0.4,0,0.6-0.1c0.4-0.1,1.5-0.5,1.8-0.6c0.5-0.2,1.6-1,1.5-2.9
			c0-0.4-0.1-1-0.2-1.5c0-0.1,0-0.2-0.1-0.3c0.4-0.3,0.7-0.6,1.1-1c0.1,0,0.2,0.1,0.3,0.1c0.9,0.3,1.6,0.6,2.4,0.6
			c0.9,0,1.6-0.4,2-1.1c0.3-0.4,1-1.7,1-1.7c0.2-0.5,0.7-1.8-0.6-3.2c-0.3-0.3-0.7-0.6-1.1-1c-0.1-0.1-0.1-0.1-0.2-0.2
			c0.1-0.4,0.2-1,0.2-1.5c0.1,0,0.2-0.1,0.3-0.1c0.4-0.1,1-0.3,1.4-0.5c1.6-0.7,1.8-1.9,1.7-2.7c0-0.5-0.3-1.9-0.3-1.9
			c-0.1-0.3-0.4-1.6-2.1-1.9c-0.3-0.1-0.7-0.1-1.2-0.1c-0.2,0-0.4,0-0.7,0c-0.1,0-0.2,0-0.3,0c-0.2-0.4-0.5-0.9-0.7-1.3
			c0.3,0,0.3-0.1,0.4-0.2c0.2-0.4,0.5-0.9,0.7-1.3c0.2-0.5,0.7-2-0.3-3.1c-0.4-0.4-1.4-1.2-1.6-1.3c-0.4-0.3-1-0.5-1.5-0.5
			c-1.2,0-1.9,0.7-2.9,1.6c-0.1,0.1-0.1,0.1-0.2,0.2c-0.4-0.2-1-0.3-1.4-0.5c0-0.1,0-0.2,0-0.3c-0.1-0.5-0.1-1-0.3-1.5
			c-0.5-1.9-1.8-2.1-2.4-2.1C-274.1,381-274.7,381-274.9,381L-274.9,381z"/> </g> <g> <path d="M-274.9,403.8c-3.9,0-7-3.1-7-7s3.1-7,7-7s7,3.1,7,7S-271,403.8-274.9,403.8z M-274.9,392.1c-2.6,0-4.7,2.1-4.7,4.7
			c0,2.6,2.1,4.7,4.7,4.7s4.7-2.1,4.7-4.7C-270.2,394.3-272.3,392.1-274.9,392.1z"/> </g> </g> </symbol><symbol viewBox="-292.5 379.5 35 35" id="icon-contents"><title>icon-contents</title> <path d="M-259.5,397c0-0.4-0.2-0.7-0.5-0.9l0,0l-6.1-2.9l6.1-2.9c0.3-0.2,0.5-0.5,0.5-0.9c0-0.4-0.2-0.7-0.5-0.9l0,0l-14.5-6.8l0,0
	c-0.3-0.1-0.6-0.1-0.8,0l-14.5,6.8l0,0c-0.5,0.2-0.7,0.5-0.7,0.9c0,0.4,0.2,0.7,0.5,0.9l0,0l6.1,2.9l-6.1,2.9
	c-0.3,0.2-0.5,0.5-0.5,0.9c0,0.4,0.2,0.7,0.5,0.9l0,0l6.1,2.9l-6.1,2.9c-0.3,0.2-0.5,0.5-0.5,0.9c0,0.4,0.2,0.7,0.5,0.9l0,0
	l14.5,6.8c0.2,0.1,0.4,0.1,0.5,0.1s0.2,0,0.3-0.1c0,0,0,0,0.1,0l0,0l14.5-6.8c0.4-0.2,0.6-0.5,0.6-0.9c0-0.4-0.2-0.7-0.5-0.9l0,0
	l-6.1-2.9l6.1-2.9C-259.7,397.7-259.5,397.4-259.5,397z M-281.3,394.3l5.9,2.8c0.1,0.1,0.3,0.1,0.5,0.1c0.1,0,0.2,0,0.3-0.1
	c0,0,0,0,0.1,0l0,0l5.9-2.8l5.7,2.7l-12.1,5.7l-12-5.7L-281.3,394.3z M-275,395l-12-5.7l12-5.7l12,5.7L-275,395z M-281.3,402
	l5.9,2.8c0.1,0.1,0.3,0.1,0.5,0.1c0.1,0,0.2,0,0.3-0.1c0,0,0,0,0.1,0l0,0l5.9-2.8l5.7,2.7l-12.1,5.7l-12-5.7L-281.3,402z"/> </symbol><symbol viewBox="-292.5 379.5 35 35" id="icon-home"><title>icon-home</title> <g> <path d="M-263.3,385.3c-3.1-3.1-7.3-4.8-11.7-4.8s-8.6,1.8-11.7,4.8c-3.1,3.1-4.8,7.3-4.8,11.7s1.8,8.6,4.8,11.7
		c3.1,3.1,7.3,4.8,11.7,4.8s8.6-1.8,11.7-4.8c3.1-3.1,4.8-7.3,4.8-11.7S-260.3,388.4-263.3,385.3z M-275,411.1
		c-7.8,0-14.1-6.3-14.1-14.1s6.3-14.1,14.1-14.1s14.1,6.3,14.1,14.1S-267.2,411.1-275,411.1z"/> <path d="M-273.8,400.7v-9.2c0-0.7-0.5-1.1-1.2-1.1s-1.2,0.6-1.2,1.2v9.1c-0.4,0.2-0.9,0.4-1.2,0.8c-1.3,1.3-1.3,3.4,0,4.7
		c0.7,0.7,1.4,1,2.3,1l0,0c0.9,0,1.8-0.3,2.3-1c0.7-0.7,1-1.4,1-2.3s-0.3-1.8-1-2.3C-273,401.1-273.4,400.9-273.8,400.7z
		 M-273.7,403.8c0,0.8-0.7,1.3-1.3,1.3c-0.8,0-1.3-0.7-1.3-1.3s0.7-1.3,1.3-1.3C-274.2,402.4-273.7,403-273.7,403.8z"/> <path d="M-275,387.5c0.5,0,0.9-0.4,0.9-0.9v-1.4c0-0.6-0.4-0.9-0.9-0.9c-0.5,0-0.9,0.4-0.9,0.9v1.3
		C-275.9,387.1-275.5,387.5-275,387.5z"/> <path d="M-282.7,388.1c-0.1-0.2-0.3-0.3-0.5-0.3c-0.3,0-0.5,0.1-0.7,0.3c-0.3,0.3-0.3,0.9,0,1.2l0.9,0.9c0.2,0.2,0.4,0.3,0.7,0.3
		s0.4-0.1,0.7-0.2c0.3-0.3,0.3-0.9,0-1.3L-282.7,388.1z"/> <path d="M-266.8,387.8c-0.2,0-0.4,0.1-0.7,0.2l-0.9,0.9c-0.2,0.2-0.2,0.4-0.2,0.7s0.1,0.4,0.2,0.7c0.2,0.2,0.4,0.2,0.7,0.2
		s0.4-0.1,0.7-0.2l0.9-0.9c0.2-0.2,0.2-0.4,0.2-0.7c0-0.2-0.1-0.4-0.2-0.7C-266.2,387.9-266.4,387.8-266.8,387.8z"/> <path d="M-285.5,396.1h-1.3c-0.6,0-0.9,0.4-0.9,0.9c0,0.5,0.4,0.9,0.9,0.9h1.3c0.6,0,0.9-0.4,0.9-0.9
		C-284.5,396.5-284.9,396.1-285.5,396.1z"/> <path d="M-263.2,396.1h-1.3c-0.6,0-0.9,0.4-0.9,0.9c0,0.5,0.4,0.9,0.9,0.9h1.3c0.6,0,0.9-0.4,0.9-0.9
		C-262.4,396.5-262.8,396.1-263.2,396.1z"/> </g> </symbol><symbol viewBox="-292.5 379.5 35 35" id="icon-stats"><title>icon-stats</title> <g> <path d="M-262.3,406.9h-24.1v-21.1c0-0.7-0.6-1.3-1.3-1.3c-0.7,0-1.3,0.6-1.3,1.3v23.7h26.7c0.7,0,1.3-0.6,1.3-1.3
		S-261.6,406.9-262.3,406.9z"/> <path d="M-262.4,387.4c-0.5-0.5-1.3-0.5-1.9,0l-9.7,9.7l-3.5-3.5l-6.3,6.3c-0.5,0.5-0.5,1.3,0,1.9c0.3,0.3,0.6,0.4,0.9,0.4
		s0.7-0.1,0.9-0.4l4.6-4.6l3.5,3.5l11.5-11.6C-261.8,388.7-261.8,387.9-262.4,387.4z"/> </g> </symbol><symbol viewBox="-292.5 379.5 35 35" id="icon-users"><title>icon-users</title> <path d="M-261.4,395.7c-0.6-1.1-1.5-1.9-2.3-2.5c-0.1-0.1-0.1-0.2-0.2-0.4c0-0.3,0.1-0.5,0.2-0.7c1-1.1,1.4-2.3,1.4-3.6
	c0-3-2.4-5.4-5.4-5.4c-1.4,0-2.6,0.5-3.6,1.4c-1.1-0.8-2.4-1.4-3.8-1.4c-1.4,0-2.6,0.4-3.6,1.3c-1-0.8-2.2-1.3-3.5-1.3
	c-3.1,0-5.5,2.4-5.5,5.4c0,1.4,0.5,2.6,1.4,3.6c0.1,0.2,0.2,0.4,0.2,0.7c0,0.2-0.1,0.3-0.2,0.4c-1,0.6-1.7,1.5-2.3,2.5
	c-1.4,2.1-2.2,5-2.2,7.4c0,1.2,0.4,2.2,1.4,3.2c1.2,1.2,3.3,1.9,5.9,2c0.1,0.2,0.2,0.3,0.4,0.5c1.5,1.4,4.4,2.2,7.9,2.2
	c3.6,0,6.8-0.8,8.1-2.2c0.2-0.2,0.3-0.3,0.4-0.5c2.9-0.2,5.2-1,6.2-2c0.8-1,1.4-2,1.4-3.2C-259.2,400.6-260,397.9-261.4,395.7z
	 M-268.1,406.5c-0.1,0.2-0.3,0.5-0.4,0.7c0,0,0,0.1-0.1,0.1c-0.3,0.3-0.6,0.5-1.2,0.7c-1.3,0.5-3.3,0.8-5.4,0.8
	c-2.1,0-4.1-0.3-5.4-0.8c-0.4-0.1-0.8-0.4-1.2-0.7c-0.2-0.2-0.4-0.5-0.6-0.8c-0.1-0.3-0.1-0.7-0.1-1.1c0-4.8,2.3-7.9,4.4-9.4
	c0.4-0.3,0.8-0.5,1.5-0.7c0.4-0.2,1-0.3,1.4-0.3c0.5,0,1.1,0.1,1.7,0.3c0.5,0.2,1.1,0.4,1.5,0.8l0,0c2.6,1.9,4.2,5.4,4.2,9.3
	C-267.9,405.7-267.9,406.1-268.1,406.5z M-275.3,392.6c-2.1,0-3.8-1.7-3.8-3.8c0-2,1.7-3.7,3.8-3.8c2.1,0,3.8,1.7,3.8,3.8
	C-271.5,390.9-273.2,392.6-275.3,392.6z M-284.7,406.1c-1.6-0.2-3-0.6-3.6-1.3c-0.5-0.4-0.7-1.1-0.7-1.7c0-5.8,3.8-9.4,6.6-9.4
	c0.7,0,1.6,0.3,2.4,0.7c-0.8,0.6-1.6,1.5-2.3,2.5c-1.6,2.4-2.4,5.5-2.4,8.2C-284.8,405.6-284.7,405.9-284.7,406.1z M-281.2,389
	c0,0.8,0.2,1.6,0.4,2.4c-0.4,0.3-1.1,0.4-1.7,0.4c-1,0-1.8-0.4-2.4-1.1c0-0.1-0.1-0.2-0.3-0.4c-0.4-0.5-0.6-1.2-0.6-1.9
	c0-1.9,1.6-3.5,3.5-3.5c0.8,0,1.5,0.2,2.1,0.7C-280.9,386.7-281.2,387.8-281.2,389z M-268.3,397.1c-0.7-1.1-1.4-1.8-2.1-2.4
	c1-0.5,1.8-0.8,2.6-0.8c1.4,0,3.1,1,4.3,2.5c1.5,1.8,2.3,4.2,2.3,6.9c0,0.6-0.2,1.3-0.7,1.7c-0.7,0.6-2.1,1.2-3.9,1.3
	c0-0.2,0.1-0.5,0.1-0.8C-265.8,402.5-266.7,399.5-268.3,397.1z M-265,390.4c-0.1,0.1-0.1,0.1-0.2,0.2c0,0.1-0.1,0.1-0.1,0.1
	c-0.6,0.6-1.5,1.1-2.4,1.1c-0.7,0-1.4-0.2-1.9-0.6c0.3-0.8,0.4-1.5,0.4-2.2c0-1.1-0.3-2.1-0.8-3.1c0.6-0.6,1.5-1,2.3-1
	c1.9,0,3.5,1.6,3.5,3.5C-264.4,389-264.6,389.8-265,390.4z"/> </symbol><symbol viewBox="0 0 21 21" id="sort"><title>sort</title> <g> <polygon fill="#010101" points="5.1,7 6.1,6 3,3 0,6 1,7 2.3,5.6 2.3,15.4 1,14 0,15 3,18 6.1,15 5.1,14 3.7,15.4 3.7,5.6 	"/> <rect x="9.2" y="4.2" fill="#010101" width="11.8" height="2"/> <rect x="9.2" y="9.6" fill="#010101" width="11.8" height="2"/> <rect x="9.2" y="15.2" fill="#010101" width="11.8" height="2"/> </g> </symbol></svg>