<svg xmlns="http://www.w3.org/2000/svg" xmlns:xlink="http://www.w3.org/1999/xlink"><symbol viewBox="0 0 241.6 43.2" id="charcoal-logo" xmlns="http://www.w3.org/2000/svg"><path d="M184.6 24.1c-1-10-15.3-18.4-12.5-23.3-7.1 5.8-4.8 11.5-4.6 12.1.2.4.4.9.4 1.3.2.4.3.9.3 1.4 0 2.3-1.9 4.2-4.2 4.2-2 0-3.7-1.4-4.1-3.3-3.2 2.8-5.2 6.9-5.2 11.4 0 8.4 6.8 15.2 15.2 15.2s15.2-6.8 15.2-15.2c0-1.3-.2-2.6-.5-3.8m-9.4 7.7c-.9 3-4 4.8-7 3.9-3-.9-4.8-4-3.9-7 .1-.5.3-1 .5-1.4.6-1.1 1.6-1.8 3-2.7 3.9-2.4 5.1-4.8 4.6-6.2 2.4 3.5 3.8 9.4 2.8 13.4M123.1 27.2c0-8.8 6.1-15.6 15.4-15.6 8 0 13.1 4.7 14 11.3h-9c-.6-2.6-2.2-4.4-4.8-4.4-4 0-6 3.3-6 8.7 0 5.2 2 8.6 6 8.6 2.9 0 4.7-1.7 5.1-5.1h9c-.2 6.8-5.6 12.1-14 12.1-9.5 0-15.7-6.7-15.7-15.6M187.4 33.7c0-6.5 5.2-8.4 11.3-9.2 5.5-.7 7.5-1.3 7.5-3.3 0-1.9-1.2-3.2-4-3.2-3 0-4.5 1.3-4.8 3.8h-8.6c.2-5.5 4.4-10.1 13.3-10.1 4.4 0 7.4.8 9.5 2.4 2.5 1.8 3.7 4.7 3.7 8.4v14.8c0 2.4.2 3.7 1 4.2v.4h-9.1c-.5-.6-.7-1.8-1-3.3h-.1c-1.7 2.5-4.3 4-8.7 4-5.8 0-10-3.1-10-8.9m19-2.3v-3.5c-1.2.6-2.9 1.1-4.8 1.5-3.6.8-5.1 1.7-5.1 4 0 2.4 1.7 3.3 4 3.3 3.5-.1 5.9-2.2 5.9-5.3M228.6 30.1c0 1.4 0 2.3.1 3.3.2 1.8 1 2.4 4.2 2.2V42c-1.8.2-3.6.3-5.7.3-4.6 0-7.4-1.7-7.6-6.3-.1-1.6-.1-3.3-.1-5.6V.8h9.3v29.3zM0 21.5C0 9.2 8 0 20.2 0 25 0 29 1.4 31.9 3.6c3.6 2.7 5.6 6.7 6.1 11.3H27.9c-.5-3.7-3.4-6.5-7.8-6.5-6.7 0-9.8 5.6-9.8 13 0 7.5 3.8 13 9.9 13 4.5 0 7.5-2.9 8-6.8h10.2c-.3 4.1-2.1 7.8-4.9 10.5-3.2 3-7.4 4.7-13.1 4.7C8.2 42.8 0 33.8 0 21.5M41.1.8h9.4v15.3h.2c2.1-2.8 4.7-4.5 8.7-4.5 6.4 0 10.2 4.6 10.2 11.1v19.1h-9.4V24.6c0-3.1-1.6-5.2-4.6-5.2-3.1 0-5.2 2.6-5.2 6.2v16.3H41V.8zM71.6 33.7c0-6.5 5.2-8.4 11.3-9.2 5.5-.7 7.5-1.3 7.5-3.3 0-1.9-1.2-3.2-4-3.2-3 0-4.5 1.3-4.8 3.8H73c.2-5.5 4.4-10.1 13.3-10.1 4.4 0 7.4.8 9.5 2.4 2.5 1.8 3.7 4.7 3.7 8.4v14.8c0 2.4.2 3.7 1 4.2v.4h-9.1c-.5-.6-.7-1.8-1-3.3h-.1c-1.7 2.5-4.3 4-8.7 4-5.8 0-10-3.1-10-8.9m19-2.3v-3.5c-1.2.6-2.9 1.1-4.8 1.5-3.6.8-5.1 1.7-5.1 4 0 2.4 1.7 3.3 4 3.3 3.4-.1 5.9-2.2 5.9-5.3M103.8 12.5h9v4.6h.2c2.1-3.5 4.5-5.1 8-5.1.9 0 1.4.1 1.8.2v8h-.2c-5.7-.8-9.4 2-9.4 8.4v13.2h-9.4V12.5z"/></symbol><symbol viewBox="0 0 66.1 73.6" id="icon-alerts" xmlns="http://www.w3.org/2000/svg"><path d="M33.1 73.6c6.2 0 11.5-3.8 13.7-9.2H19.3c2.3 5.4 7.6 9.2 13.8 9.2M57.1 37v-5.9c0-12.4-9.4-22.6-21.4-23.9V2.7C35.7 1.2 34.5 0 33 0c-1.5 0-2.7 1.2-2.7 2.7v4.5C18.4 8.5 9 18.7 9 31.1V37c0 6.8-3.6 12.7-9 16v4.3C0 58.8 1.2 60 2.7 60h60.8c1.5 0 2.7-1.2 2.7-2.7V53c-5.5-3.3-9.1-9.3-9.1-16m-43.6 2.3l.1-.1-.1.1"/></symbol><symbol viewBox="0 0 76 76" id="icon-config" xmlns="http://www.w3.org/2000/svg"><path d="M74.8 33.5l-6.9-1.3c-.3-1.5-.7-2.9-1.2-4.3l5.2-4.8c.5-.5.6-1.2.3-1.8l-2.9-5c-.4-.6-1.1-.9-1.8-.7L61 18c-1-1.1-2-2.2-3.1-3.1L60 8.1c.2-.7-.1-1.4-.7-1.7l-5-2.9c-.6-.4-1.4-.2-1.9.3l-4.5 5.3c-1.4-.5-2.8-.9-4.3-1.1L42 1.1C41.9.5 41.3 0 40.7 0H35c-.7 0-1.3.5-1.4 1.2l-1.3 6.9c-1.5.3-2.9.7-4.3 1.2L23.1 4c-.5-.5-1.2-.6-1.8-.3l-5 2.9c-.6.4-.9 1.1-.7 1.8L18 15c-1.1 1-2.2 2-3.1 3.1L8.1 16c-.7-.2-1.4.1-1.7.7l-2.9 5c-.4.6-.2 1.4.3 1.9l5.3 4.5c-.5 1.4-.9 2.8-1.1 4.3L1.1 34c-.6.1-1.1.7-1.1 1.3V41c0 .7.5 1.3 1.2 1.4l6.9 1.3c.3 1.5.7 2.9 1.2 4.3L4 52.9c-.5.5-.6 1.2-.3 1.8l2.9 5c.4.6 1.1.9 1.8.7L15 58c1 1.1 2 2.2 3.1 3.1L16 67.9c-.2.7.1 1.4.7 1.7l5 2.9c.6.4 1.4.2 1.9-.3l4.5-5.3c1.4.5 2.8.9 4.3 1.1l1.6 6.9c.2.7.7 1.1 1.4 1.1h5.7c.7 0 1.3-.5 1.4-1.2l1.3-6.9c1.5-.3 2.9-.7 4.3-1.2l4.8 5.2c.5.5 1.2.6 1.8.3l5-2.9c.6-.4.9-1.1.7-1.8L58 61c1.1-1 2.2-2 3.1-3.1l6.8 2.1c.7.2 1.4-.1 1.7-.7l2.9-5c.4-.6.2-1.4-.3-1.9l-5.3-4.5c.5-1.4.9-2.8 1.1-4.3l6.9-1.6c.7-.2 1.1-.7 1.1-1.4v-5.7c0-.7-.5-1.3-1.2-1.4M38 55c-9.4 0-17-7.6-17-17s7.6-17 17-17 17 7.6 17 17-7.6 17-17 17"/></symbol><symbol viewBox="0 0 40 40" id="icon-contacts" xmlns="http://www.w3.org/2000/svg"><style>.dst0{fill:none}</style><g id="dContact"><path d="M34.3 3H8.6C7.2 3 5.9 4.2 5.9 5.7v4.4c0 .6.5 1.2 1.2 1.2s1.2-.5 1.2-1.2V5.7c0-.2.1-.3.3-.3h25.7c.2 0 .3.1.3.3v28.6c0 .2-.1.3-.3.3H8.6c-.2 0-.3-.1-.3-.3v-4.4c0-.6-.5-1.2-1.2-1.2s-1.2.5-1.2 1.2v4.4c0 1.5 1.2 2.7 2.7 2.7h25.7c1.5 0 2.7-1.2 2.7-2.7V5.7C37 4.2 35.8 3 34.3 3z"/><path d="M13.5 27.5v1.1h16.4v-1.1c0-2.7-1.8-5-4.5-6.1 1.3-1.1 2.1-2.6 2.1-4.4 0-3.2-2.6-5.7-5.7-5.7-3.2 0-5.7 2.5-5.7 5.7 0 1.8.8 3.4 2.1 4.4-2.8 1.2-4.7 3.5-4.7 6.1zm8.2-14c2 0 3.6 1.6 3.6 3.6s-1.6 3.6-3.6 3.6-3.6-1.6-3.6-3.6 1.6-3.6 3.6-3.6zm5.8 13H15.8c.6-2 3.1-3.6 5.8-3.6 2.9 0 5.3 1.5 5.9 3.6zM4.2 16.6h5.5c.7 0 1.2-.5 1.2-1.2s-.5-1.2-1.2-1.2H4.2c-.7 0-1.2.5-1.2 1.2s.6 1.2 1.2 1.2zM4.2 21.5h5.5c.7 0 1.2-.5 1.2-1.2s-.5-1.2-1.2-1.2H4.2c-.7 0-1.2.5-1.2 1.2s.6 1.2 1.2 1.2zM10.9 25.3c0-.6-.5-1.2-1.2-1.2H4.2c-.7 0-1.2.5-1.2 1.2 0 .6.5 1.2 1.2 1.2h5.5c.7 0 1.2-.6 1.2-1.2z"/></g><path class="dst0" fill="none" d="M0 0h40v40H0z" id="d_x34_0x40"/></symbol><symbol viewBox="37.6 13.2 536.9 619" id="icon-contents" xmlns="http://www.w3.org/2000/svg"><path d="M41.9 150.2l260.9 122.6c1 .5 2.1.7 3.2.7s2.2-.2 3.2-.7l260.9-122.6c2.7-1.2 4.4-3.9 4.4-6.9 0-2.9-1.7-5.6-4.4-6.9L309.2 13.9c-2-1-4.4-1-6.4 0L41.9 136.5c-2.7 1.2-4.4 3.9-4.4 6.9.1 2.9 1.8 5.6 4.4 6.8z"/><path d="M570.1 315.9l-128.3-60.6c-2-1-4.4-1-6.4 0l-124.1 58.1c-.3.1-.5.1-.8.2-2.1.5-3.2.8-4.5.8-1.2 0-3.1 0-3.7-.2-.3-.2-.6-.3-.9-.5l-124.7-58.4c-2-1-4.4-1-6.4 0L41.9 315.9c-2.7 1.3-4.3 3.9-4.3 6.9 0 2.9 1.7 5.6 4.4 6.8l260.9 122.6c1 .5 2.1.7 3.2.7s2.2-.2 3.2-.7l260.9-122.6c2.7-1.2 4.3-3.9 4.4-6.8-.2-3-1.9-5.7-4.5-6.9z"/><path d="M570.1 495.2l-128.3-60.6c-2-1-4.4-1-6.4 0l-124.1 58.1c-.3.1-.5.1-.8.2-2.1.5-3.2.8-4.5.8-1.2 0-3.1 0-3.7-.2-.3-.2-.6-.3-.9-.5l-124.7-58.4c-2-1-4.4-1-6.4 0L41.9 495.2c-2.7 1.3-4.3 3.9-4.3 6.9 0 2.9 1.7 5.6 4.4 6.8l260.9 122.6c1 .5 2.1.7 3.2.7s2.2-.2 3.2-.7l260.9-122.6c2.7-1.2 4.3-3.9 4.4-6.8-.2-3-1.9-5.7-4.5-6.9z"/></symbol><symbol viewBox="0 0 24.6 32" id="icon-file" xmlns="http://www.w3.org/2000/svg"><path d="M14.8 0H0v32h24.6V9.8L14.8 0zm.9 5.1l5.1 5.1h-5.1V5.1zM3 29V3h9.7v10.3h8.9V29H3z"/></symbol><symbol viewBox="0 0 40 40" id="icon-files" xmlns="http://www.w3.org/2000/svg"><style>.gst0{fill:none}</style><g id="gFiles"><path d="M26.6 21.6H13.4c-.6 0-1.1.5-1.1 1.1 0 .6.5 1.1 1.1 1.1h13.2c.6 0 1.1-.5 1.1-1.1 0-.6-.5-1.1-1.1-1.1zM26.6 15.8H13.4c-.6 0-1.1.5-1.1 1.1 0 .6.5 1.1 1.1 1.1h13.2c.6 0 1.1-.5 1.1-1.1 0-.6-.5-1.1-1.1-1.1zM26.6 27.5H13.4c-.6 0-1.1.5-1.1 1.1 0 .6.5 1.1 1.1 1.1h13.2c.6 0 1.1-.5 1.1-1.1 0-.6-.5-1.1-1.1-1.1z"/><path d="M31.1 3H14.5c-.4 0-.7.2-.9.5l-7.8 7.9c-.2.2-.3.5-.3.8v21.4c0 1.9 1.5 3.5 3.5 3.5h22.3c1.9 0 3.5-1.5 3.5-3.5V6.5c-.2-2-1.7-3.5-3.7-3.5zM13.4 6.9v3c0 .7-.5 1.2-1.2 1.2h-3l4.2-4.2zm18.9 26.6c0 .7-.5 1.2-1.2 1.2H8.9c-.7 0-1.2-.5-1.2-1.2V13.3h4.5c1.9 0 3.5-1.5 3.5-3.5V5.3h15.5c.7 0 1.2.5 1.2 1.2v27z"/></g><path class="gst0" fill="none" d="M0 0h40v40H0z" id="g_x34_0x40"/></symbol><symbol viewBox="-292.5 379.5 35 35" id="icon-home" xmlns="http://www.w3.org/2000/svg"><path d="M-263.3 385.3c-3.1-3.1-7.3-4.8-11.7-4.8s-8.6 1.8-11.7 4.8c-3.1 3.1-4.8 7.3-4.8 11.7s1.8 8.6 4.8 11.7c3.1 3.1 7.3 4.8 11.7 4.8s8.6-1.8 11.7-4.8c3.1-3.1 4.8-7.3 4.8-11.7s-1.8-8.6-4.8-11.7zm-11.7 25.8c-7.8 0-14.1-6.3-14.1-14.1s6.3-14.1 14.1-14.1 14.1 6.3 14.1 14.1-6.3 14.1-14.1 14.1z"/><path d="M-273.8 400.7v-9.2c0-.7-.5-1.1-1.2-1.1s-1.2.6-1.2 1.2v9.1c-.4.2-.9.4-1.2.8a3.32 3.32 0 0 0 0 4.7c.7.7 1.4 1 2.3 1 .9 0 1.8-.3 2.3-1 .7-.7 1-1.4 1-2.3s-.3-1.8-1-2.3c-.2-.5-.6-.7-1-.9zm.1 3.1c0 .8-.7 1.3-1.3 1.3-.8 0-1.3-.7-1.3-1.3s.7-1.3 1.3-1.3c.8-.1 1.3.5 1.3 1.3zM-275 387.5c.5 0 .9-.4.9-.9v-1.4c0-.6-.4-.9-.9-.9s-.9.4-.9.9v1.3c0 .6.4 1 .9 1zM-282.7 388.1c-.1-.2-.3-.3-.5-.3-.3 0-.5.1-.7.3-.3.3-.3.9 0 1.2l.9.9c.2.2.4.3.7.3s.4-.1.7-.2c.3-.3.3-.9 0-1.3l-1.1-.9zM-266.8 387.8c-.2 0-.4.1-.7.2l-.9.9c-.2.2-.2.4-.2.7s.1.4.2.7c.2.2.4.2.7.2s.4-.1.7-.2l.9-.9c.2-.2.2-.4.2-.7 0-.2-.1-.4-.2-.7-.1-.1-.3-.2-.7-.2zM-285.5 396.1h-1.3c-.6 0-.9.4-.9.9s.4.9.9.9h1.3c.6 0 .9-.4.9-.9.1-.5-.3-.9-.9-.9zM-263.2 396.1h-1.3c-.6 0-.9.4-.9.9s.4.9.9.9h1.3c.6 0 .9-.4.9-.9-.1-.5-.5-.9-.9-.9z"/></symbol><symbol viewBox="0 0 75.7 75.7" id="icon-info" xmlns="http://www.w3.org/2000/svg"><path d="M37.9 0C17.3 0 0 17.3 0 37.9c0 20.5 17.3 37.9 37.9 37.9 20.5 0 37.9-17.3 37.9-37.9C75.7 17.3 58.4 0 37.9 0M40 57.7c-.7.7-1.6 1.1-2.7 1.1-1.4 0-2.2-.6-2.7-1.1-.7-.7-1-1.6-1-2.5 0-1 .3-1.9 1-2.6.5-.5 1.3-1.1 2.7-1.1 1.1 0 2 .4 2.7 1.1.7.7 1 1.6 1 2.6 0 .9-.3 1.8-1 2.5m7.7-23.8c-.9 1.8-2.6 3.8-5.1 6-1.6 1.3-2.3 3.2-2.3 5.8 0 .9-.7 1.6-1.6 1.6h-3c-.4 0-.9-.2-1.2-.5-.3-.3-.5-.7-.5-1.2 0-2.2.3-4 .9-5.4.6-1.4 1.8-3 3.6-4.8 2.1-2.1 2.8-2.9 3-3.3.4-.5.7-1.2.9-1.8.2-.7.3-1.4.3-2.3 0-1.7-.4-3-1.2-3.9-.8-.9-2-1.3-3.5-1.3-1.6 0-2.9.4-3.8 1.3-.9.9-1.4 2-1.4 3.5 0 .9-.7 1.6-1.6 1.6h-3c-.4 0-.8-.2-1.2-.5-.3-.3-.5-.7-.5-1.2 0-3.2 1.2-5.9 3.3-7.8 2.1-1.9 4.9-2.9 8.1-2.9 3.3 0 6 1 8 3s3 4.7 3 8c.2 2.3-.3 4.2-1.2 6.1"/></symbol><symbol viewBox="0 0 31.8 6.1" id="icon-kebab" xmlns="http://www.w3.org/2000/svg"><circle cx="3.1" cy="3.1" r="3.1"/><circle cx="15.9" cy="3.1" r="3.1"/><circle cx="28.8" cy="3.1" r="3.1"/></symbol><symbol viewBox="0 0 32.699 33.045" id="icon-map-area" xmlns="http://www.w3.org/2000/svg"><path d="M16.35 21.671c-2.815 0-5.106-2.31-5.106-5.148 0-2.838 2.291-5.148 5.106-5.148s5.106 2.31 5.106 5.148c0 2.838-2.291 5.148-5.106 5.148zm0-7.297c-1.161 0-2.106.963-2.106 2.148s.945 2.148 2.106 2.148 2.106-.964 2.106-2.148-.945-2.148-2.106-2.148z"/><path d="M16.351 33.044C7.335 33.044 0 25.633 0 16.522S7.335 0 16.351 0C25.366 0 32.7 7.412 32.7 16.522s-7.335 16.522-16.349 16.522zm0-30.044C8.989 3 3 9.066 3 16.522s5.989 13.521 13.35 13.521c7.36 0 13.349-6.065 13.349-13.521S23.711 3 16.351 3z"/></symbol><symbol viewBox="0 0 40 40" id="icon-map-marker" xmlns="http://www.w3.org/2000/svg"><path d="M20 40l-1.099-1.1c-1.146-1.148-2.284-2.246-3.388-3.313C9.133 29.42 3.621 24.093 3.621 16.378 3.621 7.347 10.969 0 20 0s16.378 7.347 16.378 16.378c0 7.716-5.512 13.042-11.894 19.21-1.103 1.067-2.24 2.166-3.386 3.312L20 40zm0-36.893c-7.318 0-13.271 5.954-13.271 13.271 0 6.397 4.83 11.065 10.945 16.975.762.737 1.541 1.489 2.327 2.262.786-.772 1.564-1.523 2.326-2.261 6.115-5.91 10.945-10.577 10.945-16.976C33.271 9.06 27.317 3.107 20 3.107zm0 19.219c-3.034 0-5.502-2.489-5.502-5.547s2.468-5.547 5.502-5.547 5.502 2.489 5.502 5.547-2.468 5.547-5.502 5.547zm0-7.988c-1.32 0-2.394 1.095-2.394 2.44s1.074 2.44 2.394 2.44c1.319 0 2.394-1.095 2.394-2.44s-1.075-2.44-2.394-2.44z"/></symbol><symbol viewBox="35 -0.3 130 200.5" id="icon-map-path" xmlns="http://www.w3.org/2000/svg"><ellipse fill="none" cx="60.5" cy="174.7" rx="10" ry="10.5"/><ellipse fill="none" cx="140.5" cy="24.7" rx="10" ry="10.5"/><path d="M140.5-.3c-13.5 0-25 11-25 25 0 11 7.5 20.5 17.5 24l-.5 53.5-60 51.5c-3.5-2-8-3.5-12.5-3.5-13.5 0-25 11-25 25s11 25 25 25 25-11 25-25c0-4-1-7.5-2.5-10.5l64.5-55.5.5-60c10-3 17.5-12.5 17.5-24 .5-14.5-11-25.5-24.5-25.5zm-80 185.5c-5.5 0-10-4.5-10-10.5s4.5-10.5 10-10.5 10 4.5 10 10.5-4.5 10.5-10 10.5zm80-150c-5.5 0-10-4.5-10-10.5s4.5-10.5 10-10.5 10 4.5 10 10.5-4.5 10.5-10 10.5z"/></symbol><symbol viewBox="-76.7 81 35.3 40" id="icon-map-region" xmlns="http://www.w3.org/2000/svg"><path d="M-46.5 109.8l-4.2-18.1c1.9-.9 3.2-2.8 3.2-5.1 0-3.1-2.5-5.6-5.6-5.6-3.1 0-5.6 2.5-5.6 5.6 0 1.2.4 2.3 1 3.2l-9.7 10c-1-.9-2.3-1.5-3.8-1.5-3.1 0-5.6 2.5-5.6 5.6s2.5 5.6 5.6 5.6c1.9 0 3.5-.9 4.5-2.4l14.2 7.3c-.1.3-.1.6-.1 1 0 3.1 2.5 5.6 5.6 5.6s5.6-2.5 5.6-5.6c.1-3-2.2-5.4-5.1-5.6m-6.6-25.5c1.3 0 2.3 1.1 2.3 2.3 0 1.3-1 2.3-2.3 2.3-1.3 0-2.3-1.1-2.3-2.3 0-1.3 1.1-2.3 2.3-2.3m-18 21.9c-1.3 0-2.3-1.1-2.3-2.3s1-2.3 2.3-2.3 2.3 1.1 2.3 2.3c0 1.3-1 2.3-2.3 2.3m5.6-2.2s0-.1 0 0c0-.4 0-.8-.1-1.2l10.6-11c.3.1.7.2 1.1.3l4.3 18.4c-.4.3-.9.6-1.2.9l-14.7-7.4zm18.6 13.7c-1.3 0-2.3-1.1-2.3-2.3 0-1.3 1-2.3 2.3-2.3s2.3 1.1 2.3 2.3c0 1.3-1 2.3-2.3 2.3"/></symbol><symbol viewBox="0 0 78 68.5" id="icon-media" xmlns="http://www.w3.org/2000/svg"><path d="M69.4 10.6H53.8l-3.6-8.1-.1-.1C49.3 1 47.7.1 46.1.1H31.9c-.9 0-1.7.3-2.5.7-.1.1-.2.2-.4.2-.5.4-.9.8-1.2 1.4l-3.7 8.3H8.6c-4.7 0-8.6 3.8-8.6 8.6V60c0 4.7 3.8 8.6 8.6 8.6h60.9c4.7 0 8.6-3.8 8.6-8.6V19.2c-.1-4.7-3.9-8.6-8.7-8.6M33.1 6.4h11.8l1.7 4.2H31.4l1.7-4.2zM38 56.7c-9.4 0-17.1-7.7-17.1-17.1 0-9.4 7.7-17.1 17.1-17.1 9.4 0 17.1 7.7 17.1 17.1 0 9.4-7.7 17.1-17.1 17.1m27.7-32.2h-5.9c-1.1 0-1.9-.9-1.9-1.9s.9-1.9 1.9-1.9h5.9c1.1 0 1.9.9 1.9 1.9s-.8 1.9-1.9 1.9"/><path d="M38 27.2c-6.8 0-12.4 5.5-12.4 12.4C25.6 46.4 31.1 52 38 52c6.8 0 12.4-5.5 12.4-12.4S44.8 27.2 38 27.2"/></symbol><symbol viewBox="0 0 25.693 36.113" id="icon-microphone" xmlns="http://www.w3.org/2000/svg"><g fill="none" stroke="#000" stroke-width="3" stroke-miterlimit="10"><path d="M12.847 25.729v7.974M2.315 34.613h21.063M15.918 19.887H9.775a2.257 2.257 0 0 1-2.25-2.25V3.75a2.257 2.257 0 0 1 2.25-2.25h6.142a2.257 2.257 0 0 1 2.25 2.25v13.887a2.256 2.256 0 0 1-2.249 2.25z"/><path d="M24.193 12.358v8.457c0 2.703-2.692 4.914-5.983 4.914H7.483c-3.291 0-5.983-2.211-5.983-4.914v-8.457"/></g></symbol><symbol viewBox="0 0 40 40" id="icon-news" xmlns="http://www.w3.org/2000/svg"><style>.qst0{fill:none}</style><g id="qNews"><path d="M35.1 8h-2.5c-.1-2.7-1-5-5.2-5H7.9C5.6 3 3.7 4.9 3.7 7.2v25.2c0 2.5 2 4.5 4.5 4.5.2 0 .5 0 .7-.1h22.2c2.9 0 5.2-2.4 5.2-5.3V9.2c0-.7-.5-1.2-1.2-1.2zm-4 26.5H12.6c.5-.8.8-1.8.8-2.8V10.4h20.5v21c0 .1-.1.2-.1.3.1 1.6-1.1 2.8-2.7 2.8zM6.1 7.2c0-1 .8-1.8 1.8-1.8h19.4c2.1 0 2.7.3 2.8 2.5h-18c-.6.1-1.1.6-1.1 1.3v22.5c0 1.6-1.2 2.8-2.8 2.8-1.1 0-2.1-1-2.1-2.1V7.2z"/><path d="M29.9 26.5H16.8c-.7 0-1.2.5-1.2 1.2s.5 1.2 1.2 1.2h13.1c.7 0 1.2-.5 1.2-1.2s-.5-1.2-1.2-1.2zM29.9 20.8H16.8c-.7 0-1.2.5-1.2 1.2s.5 1.2 1.2 1.2h13.1c.7 0 1.2-.5 1.2-1.2s-.5-1.2-1.2-1.2zM29.9 15.1H16.8c-.7 0-1.2.5-1.2 1.2s.5 1.2 1.2 1.2h13.1c.7 0 1.2-.5 1.2-1.2s-.5-1.2-1.2-1.2z"/></g><path class="qst0" fill="none" d="M0 0h40v40H0z" id="q_x34_0x40"/></symbol><symbol viewBox="0 0 15 15" id="icon-parking" xmlns="http://www.w3.org/2000/svg"><path d="M15 5.328h-1.578v.087l-.612-2.04c-.273-.912-1.2-1.599-2.151-1.599H4.341c-.951 0-1.878.687-2.151 1.602l-.612 2.037v-.087H0v.789l1.209.603a.771.771 0 0 0-.024.186v5.529a.79.79 0 0 0 .789.789h.789a.79.79 0 0 0 .789-.789V11.25h7.896v1.185a.79.79 0 0 0 .789.789h.789a.79.79 0 0 0 .789-.789V6.909a.771.771 0 0 0-.024-.186L15 6.12v-.792zM3.552 9.672c-.036 0-.075 0-.111-.009a1.169 1.169 0 0 1-.771-.387 1.174 1.174 0 0 1-.303-.789 1.181 1.181 0 0 1 2.295-.393 1.179 1.179 0 0 1-1.11 1.578m8.244-.261a1.184 1.184 0 0 1-1.926-.924c0-.138.024-.273.072-.396a1.173 1.173 0 0 1 1.113-.789 1.178 1.178 0 0 1 1.182 1.185c0 .375-.174.705-.441.924M2.601 6.117l.726-2.4c.123-.417.579-.759 1.014-.759h.789a.79.79 0 0 0 .789.789h2.763a.79.79 0 0 0 .789-.789h1.185c.435 0 .891.339 1.014.759l.726 2.4H2.601z"/></symbol><symbol viewBox="55 52.5 40 45" id="icon-snow" xmlns="http://www.w3.org/2000/svg"><path d="M94.135 77.903a1.376 1.376 0 0 0-1.725-.908l-7.194 2.232-7.561-4.362 7.561-4.363 7.194 2.232a1.378 1.378 0 0 0 1.724-.91 1.376 1.376 0 0 0-.908-1.724l-4.756-1.477 5.036-2.907c.66-.379.887-1.224.505-1.882a1.375 1.375 0 0 0-1.881-.505l-5.145 2.967.98-4.952a1.378 1.378 0 1 0-2.703-.535l-1.45 7.318-7.538 4.35v-8.761l5.798-5.801c.54-.539.54-1.41 0-1.949a1.376 1.376 0 0 0-1.947 0l-3.852 3.851v-5.632a1.377 1.377 0 1 0-2.756 0v5.632l-3.851-3.851a1.379 1.379 0 0 0-1.949 1.949l5.8 5.801v8.761l-7.539-4.35-1.449-7.318a1.378 1.378 0 1 0-2.705.535l.981 4.952-5.144-2.967a1.379 1.379 0 1 0-1.377 2.387l5.037 2.907-4.758 1.478a1.378 1.378 0 1 0 .817 2.633l7.192-2.232 7.561 4.362-7.561 4.363-7.192-2.233a1.379 1.379 0 0 0-.819 2.633l4.757 1.478-5.037 2.905a1.38 1.38 0 0 0-.506 1.884 1.38 1.38 0 0 0 1.884.504l5.143-2.968-.981 4.952a1.377 1.377 0 0 0 1.354 1.645c.645 0 1.221-.454 1.351-1.109l1.449-7.319 7.539-4.349v8.761l-5.8 5.8a1.378 1.378 0 1 0 1.949 1.95l3.851-3.852v5.634a1.378 1.378 0 1 0 2.756 0v-5.634l3.852 3.852c.269.27.621.403.973.403a1.376 1.376 0 0 0 .974-2.353l-5.798-5.8V77.25l7.538 4.351 1.45 7.317a1.377 1.377 0 0 0 1.619 1.084 1.378 1.378 0 0 0 1.085-1.619l-.981-4.952L92.13 86.4a1.376 1.376 0 0 0 1.881-.504 1.38 1.38 0 0 0-.505-1.884l-5.036-2.905 4.756-1.477a1.382 1.382 0 0 0 .909-1.727z"/></symbol><symbol viewBox="-292.5 379.5 35 35" id="icon-stats" xmlns="http://www.w3.org/2000/svg"><path d="M-262.3 406.9h-24.1v-21.1c0-.7-.6-1.3-1.3-1.3-.7 0-1.3.6-1.3 1.3v23.7h26.7c.7 0 1.3-.6 1.3-1.3s-.6-1.3-1.3-1.3z"/><path d="M-262.4 387.4c-.5-.5-1.3-.5-1.9 0l-9.7 9.7-3.5-3.5-6.3 6.3c-.5.5-.5 1.3 0 1.9.3.3.6.4.9.4s.7-.1.9-.4l4.6-4.6 3.5 3.5 11.5-11.6c.6-.4.6-1.2 0-1.7z"/></symbol><symbol viewBox="0 0 40 40" id="icon-store" xmlns="http://www.w3.org/2000/svg"><style>.ust0{fill:none}</style><path d="M31 28.5H12.1c-1 0-1.8-.8-1.8-1.8v-2.3c.6.3 1.2.4 1.8.4H32c2.4 0 4.3-1.9 4.3-4.3v-6-.1-.1-.1-.1s0-.1-.1-.1c0 0 0-.1-.1-.1 0 0 0-.1-.1-.1l-.1-.1-.1-.1s-.1 0-.1-.1c0 0-.1 0-.1-.1 0 0-.1 0-.1-.1h-.1-.1l-25-3.4V6.5v-.2-.1-.1s0-.1-.1-.1c0 0 0-.1-.1-.1 0 0 0-.1-.1-.1 0 0 0-.1-.1-.1 0 0-.1 0-.1-.1 0 0-.1 0-.1-.1-.1 0-.1-.1-.2-.1L4 3.1c-.6-.3-1.4 0-1.6.7-.1.3-.1.6 0 1 .1.2.4.5.7.6l4.7 2v19.3c0 2 1.5 3.8 3.4 4.2-.3.6-.4 1.2-.4 1.9 0 2.4 1.9 4.3 4.3 4.3s4.3-1.9 4.3-4.3c0-.6-.1-1.2-.4-1.8h8.2c-.3.6-.4 1.2-.4 1.8 0 2.4 1.9 4.3 4.3 4.3s4.3-1.9 4.3-4.3c-.1-2.4-2-4.3-4.4-4.3zm1.8 4.2c0 1-.8 1.8-1.8 1.8s-1.8-.8-1.8-1.8c0-.5.2-.9.5-1.3.3-.3.8-.5 1.3-.5 1 0 1.8.8 1.8 1.8zm-16 0c0 1-.8 1.8-1.8 1.8s-1.8-.8-1.8-1.8.8-1.8 1.8-1.8 1.8.8 1.8 1.8zm-6.5-12.3v-8.1l23.5 3.2v4.9c0 1-.8 1.8-1.8 1.8H12.1c-1 .1-1.8-.8-1.8-1.8zM9.9 6.3zm-.1-.2zm-.2-.3z" id="uStore"/><path class="ust0" fill="none" d="M0 0h40v40H0z" id="u_x34_0x40"/></symbol><symbol viewBox="0 0 40 40" id="icon-tag" xmlns="http://www.w3.org/2000/svg"><style>.vst0{fill:none}</style><g id="vTags"><path d="M10.1 10.1c-1.5 1.5-1.5 3.9 0 5.4.7.7 1.7 1.1 2.7 1.1 1 0 1.9-.4 2.7-1.1 1.5-1.5 1.5-3.9 0-5.4-1.5-1.5-3.9-1.5-5.4 0zm4.1 2.7c0 .4-.1.7-.4 1-.3.3-.6.4-1 .4s-.7-.1-1-.4c-.3-.3-.4-.6-.4-1s.1-.7.4-1c.3-.3.6-.4 1-.4s.7.1 1 .4c.3.3.4.6.4 1z"/><path d="M37.4 21l-16-16c-.3-.4-.8-.6-1.3-.6L6 4c-.5 0-1 .2-1.3.5l-.1.1C4.2 5 4 5.5 4 6l.4 14.1c0 .5.2 1 .6 1.3l16 16c.4.4.8.6 1.3.6s1-.2 1.3-.5l13.8-13.8c.4-.4.6-.8.5-1.4 0-.5-.2-1-.5-1.3zm-2 1.3L22.3 35.4 6.8 19.9 6.5 6.5l13.4.4 15.5 15.4z"/></g><path class="vst0" fill="none" d="M0 0h40v40H0z" id="v_x34_0x40"/></symbol><symbol viewBox="0 0 22.797 27.797" id="icon-text" xmlns="http://www.w3.org/2000/svg"><defs><path id="wa" d="M0 0h22.797v27.797H0z"/></defs><clipPath id="wb"><use overflow="visible"/></clipPath><path clip-path="url(#wb)" d="M16.399 19.66H6.272l-2.67 8.137H0L9.034 0h4.875l8.888 27.797h-3.728l-2.67-8.137zm-.89-3.177l-1.313-4.237a270.603 270.603 0 0 1-2.755-9.365h-.169c-.89 3.221-1.78 6.271-2.754 9.365l-1.357 4.237h8.348z"/></symbol><symbol viewBox="0 0 76.2 61.8" id="icon-users" xmlns="http://www.w3.org/2000/svg"><path d="M52.1 34.9c1.5.6 3.2 1 5 1 1.8 0 3.5-.4 5.1-1 4.8-2 8.1-6.7 8.1-12.2 0-7.3-5.9-13.2-13.2-13.2-7.3 0-13.2 5.9-13.2 13.2 0 5.5 3.4 10.2 8.2 12.2M66.1 37.9c-2.6 1.7-5.7 2.7-9 2.7-3.2 0-6.3-1-8.8-2.6-1.3.8-2.5 1.7-3.5 2.8 4.1 8.1 4.5 17.9 4.5 21h26.9c-.1 0 .7-18-10.1-23.9M16.6 30c1.8.8 3.8 1.2 5.9 1.2 2.1 0 4.2-.4 6-1.2 5.6-2.4 9.6-7.9 9.6-14.4C38.1 7 31.1 0 22.5 0S6.9 7 6.9 15.6c0 6.5 4 12.1 9.7 14.4M33.1 33.6c-3 2-6.7 3.2-10.6 3.2-3.8 0-7.4-1.1-10.4-3.1C-.2 40.7 0 61.8 0 61.8h45s.4-9-2.9-17.2c-1.7-4.4-4.5-8.6-9-11"/></symbol><symbol viewBox="0 0 21 21" id="sort" xmlns="http://www.w3.org/2000/svg"><g fill="#010101"><path d="M5.1 7l1-1L3 3 0 6l1 1 1.3-1.4v9.8L1 14l-1 1 3 3 3.1-3-1-1-1.4 1.4V5.6zM9.2 4.2H21v2H9.2zM9.2 9.6H21v2H9.2zM9.2 15.2H21v2H9.2z"/></g></symbol></svg>