<?xml version="1.0" encoding="utf-8"?>
<!-- Generator: Adobe Illustrator 19.2.1, SVG Export Plug-In . SVG Version: 6.00 Build 0)  -->
<svg version="1.1" id="Layer_1" xmlns="http://www.w3.org/2000/svg" xmlns:xlink="http://www.w3.org/1999/xlink" x="0px" y="0px"
	 viewBox="0 0 241.6 43.2" enable-background="new 0 0 241.6 43.2" xml:space="preserve">
<path d="M232.8,5.2c0-2.5,1.9-4.4,4.4-4.4c2.5,0,4.4,1.9,4.4,4.4c0,2.5-1.9,4.4-4.4,4.4
	C234.8,9.7,232.8,7.8,232.8,5.2 M240.8,5.2c0-2.1-1.5-3.7-3.5-3.7c-2,0-3.6,1.6-3.6,3.7c0,2.1,1.5,3.7,3.6,3.7
	C239.3,9,240.8,7.4,240.8,5.2 M235.3,2.9h2.3c1,0,1.8,0.5,1.8,1.4c0,0.5-0.3,0.9-0.8,1.1v0c0.4,0.1,0.6,0.4,0.7,0.8
	c0.1,0.6,0,1.1,0.2,1.2v0.1h-1.4c-0.1-0.1-0.1-0.6-0.2-1.1c-0.1-0.4-0.3-0.6-0.7-0.6h-0.6v1.7h-1.4V2.9z M237.4,4.9
	c0.4,0,0.6-0.2,0.6-0.5c0-0.3-0.2-0.5-0.6-0.5h-0.7v1H237.4z"/>
<path d="M184.6,24.1c-1-10-15.3-18.4-12.5-23.3c-7.1,5.8-4.8,11.5-4.6,12.1c0.2,0.4,0.4,0.9,0.4,1.3
	c0.2,0.4,0.3,0.9,0.3,1.4c0,2.3-1.9,4.2-4.2,4.2c-2,0-3.7-1.4-4.1-3.3c-3.2,2.8-5.2,6.9-5.2,11.4c0,8.4,6.8,15.2,15.2,15.2
	s15.2-6.8,15.2-15.2C185.1,26.6,184.9,25.3,184.6,24.1 M175.2,31.8c-0.9,3-4,4.8-7,3.9c-3-0.9-4.8-4-3.9-7c0.1-0.5,0.3-1,0.5-1.4
	c0.6-1.1,1.6-1.8,3-2.7c3.9-2.4,5.1-4.8,4.6-6.2C174.8,21.9,176.2,27.8,175.2,31.8"/>
<path d="M123.1,27.2c0-8.8,6.1-15.6,15.4-15.6c8,0,13.1,4.7,14,11.3h-9c-0.6-2.6-2.2-4.4-4.8-4.4c-4,0-6,3.3-6,8.7
	c0,5.2,2,8.6,6,8.6c2.9,0,4.7-1.7,5.1-5.1h9c-0.2,6.8-5.6,12.1-14,12.1C129.3,42.8,123.1,36.1,123.1,27.2"/>
<path d="M187.4,33.7c0-6.5,5.2-8.4,11.3-9.2c5.5-0.7,7.5-1.3,7.5-3.3c0-1.9-1.2-3.2-4-3.2c-3,0-4.5,1.3-4.8,3.8h-8.6
	c0.2-5.5,4.4-10.1,13.3-10.1c4.4,0,7.4,0.8,9.5,2.4c2.5,1.8,3.7,4.7,3.7,8.4v14.8c0,2.4,0.2,3.7,1,4.2v0.4h-9.1
	c-0.5-0.6-0.7-1.8-1-3.3h-0.1c-1.7,2.5-4.3,4-8.7,4C191.6,42.6,187.4,39.5,187.4,33.7 M206.4,31.4v-3.5c-1.2,0.6-2.9,1.1-4.8,1.5
	c-3.6,0.8-5.1,1.7-5.1,4c0,2.4,1.7,3.3,4,3.3C204,36.6,206.4,34.5,206.4,31.4"/>
<path d="M228.6,30.1c0,1.4,0,2.3,0.1,3.3c0.2,1.8,1,2.4,4.2,2.2V42c-1.8,0.2-3.6,0.3-5.7,0.3c-4.6,0-7.4-1.7-7.6-6.3
	c-0.1-1.6-0.1-3.3-0.1-5.6V0.8h9.3V30.1z"/>
<path d="M0,21.5C0,9.2,8,0,20.2,0C25,0,29,1.4,31.9,3.6c3.6,2.7,5.6,6.7,6.1,11.3H27.9c-0.5-3.7-3.4-6.5-7.8-6.5
	c-6.7,0-9.8,5.6-9.8,13c0,7.5,3.8,13,9.9,13c4.5,0,7.5-2.9,8-6.8h10.2c-0.3,4.1-2.1,7.8-4.9,10.5c-3.2,3-7.4,4.7-13.1,4.7
	C8.2,42.8,0,33.8,0,21.5"/>
<path d="M41.1,0.8h9.4v15.3h0.2c2.1-2.8,4.7-4.5,8.7-4.5c6.4,0,10.2,4.6,10.2,11.1v19.1h-9.4V24.6
	c0-3.1-1.6-5.2-4.6-5.2c-3.1,0-5.2,2.6-5.2,6.2v16.3h-9.4V0.8z"/>
<path d="M71.6,33.7c0-6.5,5.2-8.4,11.3-9.2c5.5-0.7,7.5-1.3,7.5-3.3c0-1.9-1.2-3.2-4-3.2c-3,0-4.5,1.3-4.8,3.8h-8.6
	c0.2-5.5,4.4-10.1,13.3-10.1c4.4,0,7.4,0.8,9.5,2.4c2.5,1.8,3.7,4.7,3.7,8.4v14.8c0,2.4,0.2,3.7,1,4.2v0.4h-9.1
	c-0.5-0.6-0.7-1.8-1-3.3h-0.1c-1.7,2.5-4.3,4-8.7,4C75.8,42.6,71.6,39.5,71.6,33.7 M90.6,31.4v-3.5c-1.2,0.6-2.9,1.1-4.8,1.5
	c-3.6,0.8-5.1,1.7-5.1,4c0,2.4,1.7,3.3,4,3.3C88.1,36.6,90.6,34.5,90.6,31.4"/>
<path d="M103.8,12.5h9v4.6h0.2c2.1-3.5,4.5-5.1,8-5.1c0.9,0,1.4,0.1,1.8,0.2v8h-0.2c-5.7-0.8-9.4,2-9.4,8.4v13.2
	h-9.4V12.5z"/>
</svg>
