<?xml version="1.0" encoding="utf-8"?>
<!-- Generator: Adobe Illustrator 18.1.1, SVG Export Plug-In . SVG Version: 6.00 Build 0)  -->
<svg version="1.1" id="Layer_1" xmlns="http://www.w3.org/2000/svg" xmlns:xlink="http://www.w3.org/1999/xlink" x="0px" y="0px"
     width="87.5px" height="16px" viewBox="0 0 87.5 16" enable-background="new 0 0 87.5 16" xml:space="preserve">
<g>
    <path d="M0,8c0-4.6,3-8,7.6-8c1.8,0,3.3,0.5,4.4,1.4c1.3,1,2.1,2.5,2.3,4.2h-3.8c-0.2-1.4-1.3-2.4-2.9-2.4C5,3.2,3.9,5.2,3.9,8
        c0,2.8,1.4,4.9,3.7,4.9c1.7,0,2.8-1.1,3-2.6h3.8c-0.1,1.5-0.8,2.9-1.8,3.9C11.3,15.4,9.8,16,7.6,16C3.1,16,0,12.6,0,8z"/>
    <path d="M15.4,0.3h3.5V6h0.1c0.8-1.1,1.7-1.7,3.3-1.7c2.4,0,3.8,1.7,3.8,4.2v7.2h-3.5V9.2c0-1.2-0.6-2-1.7-2c-1.2,0-1.9,1-1.9,2.3
        v6.1h-3.5V0.3z"/>
    <path d="M27.2,12.6c0-2.4,1.9-3.2,4.2-3.5c2.1-0.3,2.8-0.5,2.8-1.2c0-0.7-0.5-1.2-1.5-1.2c-1.1,0-1.7,0.5-1.8,1.4h-3.2
        c0.1-2,1.7-3.8,5-3.8c1.7,0,2.8,0.3,3.6,0.9c0.9,0.7,1.4,1.8,1.4,3.1v5.5c0,0.9,0.1,1.4,0.4,1.6v0.2h-3.4c-0.2-0.2-0.3-0.7-0.4-1.2
        h0c-0.6,0.9-1.6,1.5-3.3,1.5C28.7,15.9,27.2,14.8,27.2,12.6z M34.2,11.7v-1.3c-0.5,0.2-1.1,0.4-1.8,0.6c-1.4,0.3-1.9,0.6-1.9,1.5
        c0,0.9,0.6,1.2,1.5,1.2C33.3,13.7,34.2,12.9,34.2,11.7z"/>
    <path d="M39.2,4.7h3.4v1.7h0.1c0.8-1.3,1.7-1.9,3-1.9c0.3,0,0.5,0,0.7,0.1v3h-0.1c-2.1-0.3-3.5,0.8-3.5,3.1v4.9h-3.5V4.7z"/>
    <path d="M46.4,10.2c0-3.3,2.3-5.8,5.8-5.8c3,0,4.9,1.7,5.2,4.2H54c-0.2-1-0.8-1.6-1.8-1.6c-1.5,0-2.3,1.2-2.3,3.2
        c0,2,0.8,3.2,2.3,3.2c1.1,0,1.8-0.6,1.9-1.9h3.4C57.4,14,55.4,16,52.3,16C48.7,16,46.4,13.5,46.4,10.2z"/>
    <path d="M58,10.2c0-3.3,2.4-5.8,5.9-5.8c3.5,0,5.9,2.5,5.9,5.8c0,3.3-2.3,5.8-5.9,5.8C60.4,16,58,13.5,58,10.2z M66.2,10.2
        c0-2-0.8-3.4-2.3-3.4c-1.5,0-2.3,1.4-2.3,3.4s0.8,3.3,2.3,3.3C65.4,13.5,66.2,12.2,66.2,10.2z"/>
    <path d="M70.5,12.6c0-2.4,1.9-3.2,4.2-3.5c2.1-0.3,2.8-0.5,2.8-1.2c0-0.7-0.5-1.2-1.5-1.2c-1.1,0-1.7,0.5-1.8,1.4H71
        c0.1-2,1.7-3.8,5-3.8c1.7,0,2.8,0.3,3.6,0.9c0.9,0.7,1.4,1.8,1.4,3.1v5.5c0,0.9,0.1,1.4,0.4,1.6v0.2h-3.4c-0.2-0.2-0.3-0.7-0.4-1.2
        h0c-0.6,0.9-1.6,1.5-3.3,1.5C72,15.9,70.5,14.8,70.5,12.6z M77.6,11.7v-1.3c-0.5,0.2-1.1,0.4-1.8,0.6c-1.4,0.3-1.9,0.6-1.9,1.5
        c0,0.9,0.6,1.2,1.5,1.2C76.7,13.7,77.6,12.9,77.6,11.7z"/>
    <path d="M85.9,11.3c0,0.5,0,0.9,0,1.2c0.1,0.7,0.4,0.9,1.6,0.8v2.4c-0.7,0.1-1.4,0.1-2.1,0.1c-1.7,0-2.8-0.6-2.9-2.4
        c-0.1-0.6-0.1-1.2-0.1-2.1v-11h3.5V11.3z"/>
</g>
</svg>
