<?xml version="1.0" encoding="utf-8"?>
<!-- Generator: Adobe Illustrator 17.0.0, SVG Export Plug-In . SVG Version: 6.00 Build 0)  -->
<!DOCTYPE svg PUBLIC "-//W3C//DTD SVG 1.1//EN" "http://www.w3.org/Graphics/SVG/1.1/DTD/svg11.dtd">
<svg version="1.1" id="Layer_1" xmlns="http://www.w3.org/2000/svg" xmlns:xlink="http://www.w3.org/1999/xlink" x="0px" y="0px"
	 width="15px" height="15px" viewBox="0 0 15 15" enable-background="new 0 0 15 15" xml:space="preserve">
<g>

	<path  d="M15,5.328h-0.789h-0.789v0.087l-0.612-2.04c-0.273-0.912-1.2-1.599-2.151-1.599H4.341
		c-0.951,0-1.878,0.687-2.151,1.602L1.578,5.415V5.328H0.789H0v0.789L1.209,6.72C1.194,6.78,1.185,6.843,1.185,6.906v3.159v0.396
		v1.974c0,0.435,0.354,0.789,0.789,0.789h0.789c0.435,0,0.789-0.354,0.789-0.789V11.25h7.896v1.185c0,0.435,0.354,0.789,0.789,0.789
		h0.789c0.435,0,0.789-0.354,0.789-0.789v-1.974v-0.396V6.909c0-0.063-0.009-0.126-0.024-0.186L15,6.12V5.328z M3.552,9.672
		c-0.036,0-0.075,0-0.111-0.009C3.138,9.639,2.865,9.492,2.67,9.276C2.481,9.066,2.367,8.79,2.367,8.487
		c0-0.186,0.042-0.363,0.117-0.516c0.192-0.396,0.597-0.666,1.065-0.666c0.516,0,0.954,0.327,1.113,0.789
		C4.71,8.217,4.734,8.352,4.734,8.49C4.737,9.141,4.209,9.672,3.552,9.672 M11.796,9.411c-0.201,0.162-0.462,0.261-0.741,0.261
		c-0.654,0-1.185-0.528-1.185-1.185c0-0.138,0.024-0.273,0.072-0.396c0.159-0.462,0.597-0.789,1.113-0.789
		c0.504,0,0.936,0.315,1.104,0.762c0.051,0.129,0.078,0.273,0.078,0.423C12.237,8.862,12.063,9.192,11.796,9.411 M2.601,6.117
		l0.726-2.4C3.45,3.3,3.906,2.958,4.341,2.958H5.13c0,0.435,0.354,0.789,0.789,0.789h2.763c0.435,0,0.789-0.354,0.789-0.789h1.185
		c0.435,0,0.891,0.339,1.014,0.759l0.726,2.4H2.601z"/>
</g>
</svg>
