<?xml version="1.0" encoding="utf-8"?>
<!-- Generator: Adobe Illustrator 18.1.1, SVG Export Plug-In . SVG Version: 6.00 Build 0)  -->
<svg version="1.1" id="Layer_1" xmlns="http://www.w3.org/2000/svg" xmlns:xlink="http://www.w3.org/1999/xlink" x="0px" y="0px"
     width="35px" height="35px" viewBox="-292.5 379.5 35 35" enable-background="new -292.5 379.5 35 35" xml:space="preserve">
<g>
    <g>
        <path d="M-274.9,383.1c0.3,0,0.7,0,0.9,0c0.6,0,0.5,3.4,1.2,3.5c0.5,0.1,2.7,0.9,3.2,1.2h0.1c0.6,0,2.4-2,2.9-2h0.1
            c0.2,0.2,1.1,0.9,1.3,1.1c0.4,0.4-1.8,3-1.4,3.4c0.3,0.4,1.5,2.4,1.7,2.9c0.1,0.2,0.5,0.2,1.2,0.2c0.4,0,1,0,1.4,0
            c0.6,0,1.1,0,1.2,0.3s0.3,1.4,0.3,1.6c0,0.6-3.2,1.1-3.3,1.7c0,0.5-0.4,2.8-0.5,3.3c-0.2,0.5,2.8,2.2,2.5,2.8
            c-0.1,0.2-0.6,1.2-0.9,1.5c0,0.1-0.1,0.1-0.2,0.1c-0.6,0-2.5-1-3.1-1c-0.1,0-0.2,0-0.2,0.1c-0.4,0.4-2.1,1.9-2.6,2.1
            c-0.5,0.3,0.7,3.5,0.1,3.7c-0.2,0.1-1.3,0.5-1.6,0.5l0,0c-0.6,0-1.6-3-2.2-3l0,0c-0.3,0-1,0.1-1.7,0.1s-1.4,0-1.7-0.1l0,0
            c-0.6,0-1.6,3-2.2,3l0,0c-0.3-0.1-1.3-0.4-1.6-0.5c-0.7-0.1,0.4-3.3-0.1-3.6c-0.5-0.3-2.2-1.7-2.6-2.1c0-0.1-0.1-0.1-0.2-0.1
            c-0.7,0-2.5,1-3.1,1c-0.1,0-0.2,0-0.2-0.1c-0.2-0.2-0.7-1.2-0.9-1.5c-0.3-0.5,2.7-2.1,2.5-2.8c-0.2-0.5-0.5-2.8-0.5-3.3
            c0-0.6-3.3-1.1-3.3-1.7c0-0.3,0.2-1.4,0.3-1.6c0-0.2,0.4-0.2,1.1-0.2c0.4,0,1,0,1.4,0c0.6,0,1.1,0,1.2-0.2c0.1-0.5,1.3-2.6,1.7-3
            c0.3-0.4-1.9-3-1.5-3.4c0.2-0.2,1.1-1,1.3-1.1h0.1c0.6,0,2.4,2,2.9,2h0.1c0.5-0.3,2.6-1.1,3.2-1.2s0.5-3.5,1.2-3.5
            C-275.6,383.2-275.2,383.1-274.9,383.1 M-274.9,381c-0.2,0-0.7,0-1,0c-0.5,0-1.8,0.3-2.4,2.1c-0.1,0.4-0.2,1-0.3,1.5
            c0,0.1,0,0.2,0,0.3c-0.4,0.1-1,0.3-1.4,0.5c-0.1-0.1-0.2-0.1-0.2-0.2c-1-0.9-1.8-1.6-2.9-1.6c-0.5,0-1.1,0.2-1.5,0.5
            c-0.2,0.1-1.2,0.9-1.5,1.2c-0.4,0.4-1.2,1.5-0.3,3.2c0.2,0.4,0.4,0.9,0.7,1.3c0,0.1,0,0.2,0.1,0.2c-0.2,0.4-0.5,0.9-0.7,1.3
            c-0.1,0-0.2,0-0.3,0c-0.2,0-0.5,0-0.7,0c-0.5,0-0.9,0-1.2,0.1c-1.6,0.3-2,1.6-2.1,1.9c0,0-0.3,1.4-0.3,1.9
            c-0.1,0.6,0.1,1.8,1.7,2.7c0.4,0.2,0.9,0.3,1.4,0.5c0.1,0,0.2,0.1,0.3,0.1c0.1,0.4,0.1,1,0.2,1.5c-0.1,0.1-0.2,0.1-0.2,0.2
            c-0.4,0.3-0.7,0.6-1.1,1c-1.4,1.4-1,2.7-0.6,3.2c0,0,0.6,1.3,1,1.7c0.4,0.6,1.2,1.1,2,1.1c0.7,0,1.5-0.3,2.4-0.6
            c0.1,0,0.2-0.1,0.3-0.1c0.3,0.3,0.7,0.6,1.1,1c0,0.1,0,0.2-0.1,0.3c-0.1,0.5-0.2,1-0.2,1.5c-0.2,1.9,1,2.7,1.5,2.9
            c0.3,0.1,1.4,0.5,1.8,0.6c0.2,0.1,0.4,0.1,0.6,0.1c1.6,0,2.4-1.4,3-2.6c0-0.1,0.1-0.2,0.1-0.3c0.2,0,0.5,0,0.7,0s0.4,0,0.7,0
            c0.1,0.1,0.1,0.2,0.1,0.3c0.6,1.2,1.4,2.6,3,2.6c0.2,0,0.4,0,0.6-0.1c0.4-0.1,1.5-0.5,1.8-0.6c0.5-0.2,1.6-1,1.5-2.9
            c0-0.4-0.1-1-0.2-1.5c0-0.1,0-0.2-0.1-0.3c0.4-0.3,0.7-0.6,1.1-1c0.1,0,0.2,0.1,0.3,0.1c0.9,0.3,1.6,0.6,2.4,0.6
            c0.9,0,1.6-0.4,2-1.1c0.3-0.4,1-1.7,1-1.7c0.2-0.5,0.7-1.8-0.6-3.2c-0.3-0.3-0.7-0.6-1.1-1c-0.1-0.1-0.1-0.1-0.2-0.2
            c0.1-0.4,0.2-1,0.2-1.5c0.1,0,0.2-0.1,0.3-0.1c0.4-0.1,1-0.3,1.4-0.5c1.6-0.7,1.8-1.9,1.7-2.7c0-0.5-0.3-1.9-0.3-1.9
            c-0.1-0.3-0.4-1.6-2.1-1.9c-0.3-0.1-0.7-0.1-1.2-0.1c-0.2,0-0.4,0-0.7,0c-0.1,0-0.2,0-0.3,0c-0.2-0.4-0.5-0.9-0.7-1.3
            c0.3,0,0.3-0.1,0.4-0.2c0.2-0.4,0.5-0.9,0.7-1.3c0.2-0.5,0.7-2-0.3-3.1c-0.4-0.4-1.4-1.2-1.6-1.3c-0.4-0.3-1-0.5-1.5-0.5
            c-1.2,0-1.9,0.7-2.9,1.6c-0.1,0.1-0.1,0.1-0.2,0.2c-0.4-0.2-1-0.3-1.4-0.5c0-0.1,0-0.2,0-0.3c-0.1-0.5-0.1-1-0.3-1.5
            c-0.5-1.9-1.8-2.1-2.4-2.1C-274.1,381-274.7,381-274.9,381L-274.9,381z"/>
    </g>
    <g>
        <path d="M-274.9,403.8c-3.9,0-7-3.1-7-7s3.1-7,7-7s7,3.1,7,7S-271,403.8-274.9,403.8z M-274.9,392.1c-2.6,0-4.7,2.1-4.7,4.7
            c0,2.6,2.1,4.7,4.7,4.7s4.7-2.1,4.7-4.7C-270.2,394.3-272.3,392.1-274.9,392.1z"/>
    </g>
</g>
</svg>
