<?xml version="1.0" encoding="utf-8"?>
<!-- Generator: Adobe Illustrator 19.2.1, SVG Export Plug-In . SVG Version: 6.00 Build 0)  -->
<svg version="1.1" id="Layer_1" xmlns="http://www.w3.org/2000/svg" xmlns:xlink="http://www.w3.org/1999/xlink" x="0px" y="0px"
	 viewBox="0 0 75.7 75.7" enable-background="new 0 0 75.7 75.7" xml:space="preserve">
<path d="M37.9,0C17.3,0,0,17.3,0,37.9c0,20.5,17.3,37.9,37.9,37.9c20.5,0,37.9-17.3,37.9-37.9C75.7,17.3,58.4,0,37.9,0 M40,57.7
	c-0.7,0.7-1.6,1.1-2.7,1.1c-1.4,0-2.2-0.6-2.7-1.1c-0.7-0.7-1-1.6-1-2.5c0-1,0.3-1.9,1-2.6c0.5-0.5,1.3-1.1,2.7-1.1
	c1.1,0,2,0.4,2.7,1.1c0.7,0.7,1,1.6,1,2.6C41,56.1,40.7,57,40,57.7 M47.7,33.9c-0.9,1.8-2.6,3.8-5.1,6c-1.6,1.3-2.3,3.2-2.3,5.8
	c0,0.9-0.7,1.6-1.6,1.6h-3c-0.4,0-0.9-0.2-1.2-0.5c-0.3-0.3-0.5-0.7-0.5-1.2c0-2.2,0.3-4,0.9-5.4c0.6-1.4,1.8-3,3.6-4.8
	c2.1-2.1,2.8-2.9,3-3.3c0.4-0.5,0.7-1.2,0.9-1.8c0.2-0.7,0.3-1.4,0.3-2.3c0-1.7-0.4-3-1.2-3.9c-0.8-0.9-2-1.3-3.5-1.3
	c-1.6,0-2.9,0.4-3.8,1.3c-0.9,0.9-1.4,2-1.4,3.5c0,0.9-0.7,1.6-1.6,1.6h-3c-0.4,0-0.8-0.2-1.2-0.5c-0.3-0.3-0.5-0.7-0.5-1.2
	c0-3.2,1.2-5.9,3.3-7.8c2.1-1.9,4.9-2.9,8.1-2.9c3.3,0,6,1,8,3c2,2,3,4.7,3,8C49.1,30.1,48.6,32,47.7,33.9"/>
</svg>
