<?xml version="1.0" encoding="utf-8"?>
<!-- Generator: Adobe Illustrator 18.1.1, SVG Export Plug-In . SVG Version: 6.00 Build 0)  -->
<svg version="1.1" id="Layer_1" xmlns="http://www.w3.org/2000/svg" xmlns:xlink="http://www.w3.org/1999/xlink" x="0px" y="0px"
     width="35px" height="35px" viewBox="-292.5 379.5 35 35" enable-background="new -292.5 379.5 35 35" xml:space="preserve">
<g>
    <path d="M-262.3,406.9h-24.1v-21.1c0-0.7-0.6-1.3-1.3-1.3c-0.7,0-1.3,0.6-1.3,1.3v23.7h26.7c0.7,0,1.3-0.6,1.3-1.3
        S-261.6,406.9-262.3,406.9z"/>
    <path d="M-262.4,387.4c-0.5-0.5-1.3-0.5-1.9,0l-9.7,9.7l-3.5-3.5l-6.3,6.3c-0.5,0.5-0.5,1.3,0,1.9c0.3,0.3,0.6,0.4,0.9,0.4
        s0.7-0.1,0.9-0.4l4.6-4.6l3.5,3.5l11.5-11.6C-261.8,388.7-261.8,387.9-262.4,387.4z"/>
</g>
</svg>
