<?xml version="1.0" encoding="utf-8"?>
<!-- Generator: Adobe Illustrator 17.0.0, SVG Export Plug-In . SVG Version: 6.00 Build 0)  -->
<!DOCTYPE svg PUBLIC "-//W3C//DTD SVG 1.1//EN" "http://www.w3.org/Graphics/SVG/1.1/DTD/svg11.dtd">
<svg version="1.1" id="Layer_1" xmlns="http://www.w3.org/2000/svg" xmlns:xlink="http://www.w3.org/1999/xlink" x="0px" y="0px"
	 width="40px" height="40px" viewBox="0 0 40 40" enable-background="new 0 0 40 40" xml:space="preserve">
<g>
	<ellipse fill="none" cx="11.991" cy="34.997" rx="2.046" ry="2.087"/>
	<ellipse fill="none" cx="28.009" cy="5.003" rx="2.047" ry="2.087"/>
	<path d="M28.009,0c-2.736,0-4.962,2.245-4.962,5.003c0,2.238,1.475,4.115,3.489,4.752l-0.084,10.684l-11.96,10.263
		c-0.737-0.438-1.585-0.707-2.501-0.707c-2.736,0-4.961,2.244-4.961,5.002C7.03,37.756,9.255,40,11.991,40
		c2.736,0,4.962-2.244,4.962-5.003c0-0.769-0.187-1.489-0.496-2.14l12.902-11.083l0.092-12.009c2.029-0.628,3.519-2.513,3.519-4.762
		C32.97,2.245,30.745,0,28.009,0z M11.991,37.084c-1.128,0-2.046-0.936-2.046-2.087c0-1.151,0.917-2.087,2.046-2.087
		c1.128,0,2.047,0.936,2.047,2.087C14.038,36.148,13.119,37.084,11.991,37.084z M28.009,7.09c-1.128,0-2.047-0.936-2.047-2.087
		s0.918-2.087,2.047-2.087c1.128,0,2.046,0.936,2.046,2.087S29.137,7.09,28.009,7.09z"/>
</g>
</svg>
