<!DOCTYPE svg PUBLIC "-//W3C//DTD SVG 1.1//EN" "http://www.w3.org/Graphics/SVG/1.1/DTD/svg11.dtd">
<svg version="1.1" id="Layer_1" xmlns="http://www.w3.org/2000/svg" xmlns:xlink="http://www.w3.org/1999/xlink" x="0px" y="0px"
     width="32.699px" height="33.045px" viewBox="0 0 32.699 33.045" enable-background="new 0 0 32.699 33.045" xml:space="preserve">

<path d="M16.35,21.671c-2.815,0-5.106-2.31-5.106-5.148c0-2.838,2.291-5.148,5.106-5.148s5.106,2.31,5.106,5.148
    C21.456,19.361,19.165,21.671,16.35,21.671z M16.35,14.374c-1.161,0-2.106,0.963-2.106,2.148s0.945,2.148,2.106,2.148
    s2.106-0.964,2.106-2.148S17.511,14.374,16.35,14.374z"/>
<path d="M16.351,33.044C7.335,33.044,0,25.633,0,16.522S7.335,0,16.351,0c9.015,0,16.349,7.412,16.349,16.522
    S25.365,33.044,16.351,33.044z M16.351,3C8.989,3,3,9.066,3,16.522s5.989,13.521,13.35,13.521c7.36,0,13.349-6.065,13.349-13.521
    S23.711,3,16.351,3z"/>
</svg>
