<?xml version="1.0" encoding="utf-8"?>
<!-- Generator: Adobe Illustrator 19.2.1, SVG Export Plug-In . SVG Version: 6.00 Build 0)  -->
<svg version="1.1" id="Layer_1" xmlns="http://www.w3.org/2000/svg" xmlns:xlink="http://www.w3.org/1999/xlink" x="0px" y="0px"
	 viewBox="0 0 66.1 73.6" enable-background="new 0 0 66.1 73.6" xml:space="preserve">
<path d="M33.1,73.6c6.2,0,11.5-3.8,13.7-9.2H19.3C21.6,69.8,26.9,73.6,33.1,73.6"/>
<path d="M57.1,37c0-0.2,0-0.5,0-0.7v-5.2c0-12.4-9.4-22.6-21.4-23.9V2.7c0-1.5-1.2-2.7-2.7-2.7c0,0,0,0,0,0c0,0,0,0,0,0
	c-1.5,0-2.7,1.2-2.7,2.7v4.5C18.4,8.5,9,18.7,9,31.1v5.2c0,0.2,0,0.5,0,0.7c0,6.8-3.6,12.7-9,16v4.3c0,1.5,1.2,2.7,2.7,2.7h60.8
	c1.5,0,2.7-1.2,2.7-2.7V53C60.7,49.7,57.1,43.7,57.1,37 M13.5,39.3L13.5,39.3c0,0,0.1-0.1,0.1-0.1C13.6,39.2,13.6,39.2,13.5,39.3"/>
</svg>
