<?xml version="1.0" encoding="utf-8"?>
<!-- Generator: Adobe Illustrator 18.1.1, SVG Export Plug-In . SVG Version: 6.00 Build 0)  -->
<svg version="1.1" id="Layer_1" xmlns="http://www.w3.org/2000/svg" xmlns:xlink="http://www.w3.org/1999/xlink" x="0px" y="0px"
     width="35px" height="35px" viewBox="-292.5 379.5 35 35" enable-background="new -292.5 379.5 35 35" xml:space="preserve">
<g>
    <path d="M-263.3,385.3c-3.1-3.1-7.3-4.8-11.7-4.8s-8.6,1.8-11.7,4.8c-3.1,3.1-4.8,7.3-4.8,11.7s1.8,8.6,4.8,11.7
        c3.1,3.1,7.3,4.8,11.7,4.8s8.6-1.8,11.7-4.8c3.1-3.1,4.8-7.3,4.8-11.7S-260.3,388.4-263.3,385.3z M-275,411.1
        c-7.8,0-14.1-6.3-14.1-14.1s6.3-14.1,14.1-14.1s14.1,6.3,14.1,14.1S-267.2,411.1-275,411.1z"/>
    <path d="M-273.8,400.7v-9.2c0-0.7-0.5-1.1-1.2-1.1s-1.2,0.6-1.2,1.2v9.1c-0.4,0.2-0.9,0.4-1.2,0.8c-1.3,1.3-1.3,3.4,0,4.7
        c0.7,0.7,1.4,1,2.3,1l0,0c0.9,0,1.8-0.3,2.3-1c0.7-0.7,1-1.4,1-2.3s-0.3-1.8-1-2.3C-273,401.1-273.4,400.9-273.8,400.7z
         M-273.7,403.8c0,0.8-0.7,1.3-1.3,1.3c-0.8,0-1.3-0.7-1.3-1.3s0.7-1.3,1.3-1.3C-274.2,402.4-273.7,403-273.7,403.8z"/>
    <path d="M-275,387.5c0.5,0,0.9-0.4,0.9-0.9v-1.4c0-0.6-0.4-0.9-0.9-0.9c-0.5,0-0.9,0.4-0.9,0.9v1.3
        C-275.9,387.1-275.5,387.5-275,387.5z"/>
    <path d="M-282.7,388.1c-0.1-0.2-0.3-0.3-0.5-0.3c-0.3,0-0.5,0.1-0.7,0.3c-0.3,0.3-0.3,0.9,0,1.2l0.9,0.9c0.2,0.2,0.4,0.3,0.7,0.3
        s0.4-0.1,0.7-0.2c0.3-0.3,0.3-0.9,0-1.3L-282.7,388.1z"/>
    <path d="M-266.8,387.8c-0.2,0-0.4,0.1-0.7,0.2l-0.9,0.9c-0.2,0.2-0.2,0.4-0.2,0.7s0.1,0.4,0.2,0.7c0.2,0.2,0.4,0.2,0.7,0.2
        s0.4-0.1,0.7-0.2l0.9-0.9c0.2-0.2,0.2-0.4,0.2-0.7c0-0.2-0.1-0.4-0.2-0.7C-266.2,387.9-266.4,387.8-266.8,387.8z"/>
    <path d="M-285.5,396.1h-1.3c-0.6,0-0.9,0.4-0.9,0.9c0,0.5,0.4,0.9,0.9,0.9h1.3c0.6,0,0.9-0.4,0.9-0.9
        C-284.5,396.5-284.9,396.1-285.5,396.1z"/>
    <path d="M-263.2,396.1h-1.3c-0.6,0-0.9,0.4-0.9,0.9c0,0.5,0.4,0.9,0.9,0.9h1.3c0.6,0,0.9-0.4,0.9-0.9
        C-262.4,396.5-262.8,396.1-263.2,396.1z"/>
</g>
</svg>
