<?xml version="1.0" encoding="utf-8"?>
<!-- Generator: Adobe Illustrator 19.2.1, SVG Export Plug-In . SVG Version: 6.00 Build 0)  -->
<!DOCTYPE svg PUBLIC "-//W3C//DTD SVG 1.1//EN" "http://www.w3.org/Graphics/SVG/1.1/DTD/svg11.dtd">
<svg version="1.1" xmlns="http://www.w3.org/2000/svg" xmlns:xlink="http://www.w3.org/1999/xlink" x="0px" y="0px"
	 viewBox="0 0 40 40" style="enable-background:new 0 0 40 40;" xml:space="preserve">
<style type="text/css">
	.st0{fill:none;}
</style>
<g id="Media">
	<g>
		<path d="M29.1,15.4h3c0.6,0,1.2-0.5,1.2-1.2c0-0.7-0.5-1.2-1.2-1.2h-3c-0.6,0-1.2,0.5-1.2,1.2C27.9,14.9,28.5,15.4,29.1,15.4z"/>
		<path d="M20,30.2c4.1,0,7.5-3.5,7.5-7.7s-3.4-7.7-7.5-7.7s-7.5,3.5-7.5,7.7S15.9,30.2,20,30.2z M20,17.2c2.8,0,5.2,2.4,5.2,5.3
			c0,2.9-2.3,5.3-5.2,5.3s-5.2-2.4-5.2-5.3C14.8,19.6,17.2,17.2,20,17.2z"/>
		<path d="M32.6,8h-5.8L25,4c-0.3-0.6-1-1-1.6-1h-6.7c-0.6,0-1.3,0.4-1.6,1l-1.8,4H7.4C5,8,3,10.1,3,12.6v19.9C3,35,5,37,7.4,37
			h25.1c2.4,0,4.4-2,4.4-4.5V12.6C37,10.1,35,8,32.6,8z M16,8L17,5.4h6.1L24.1,8H16z M7.4,10.4h25.1c1.2,0,2.1,1,2.1,2.1v19.9
			c0,1.2-0.9,2.1-2.1,2.1H7.4c-1.2,0-2.1-1-2.1-2.1V12.6C5.3,11.4,6.3,10.4,7.4,10.4z"/>
	</g>
</g>
<g id="_x34_0x40">
	<rect class="st0" width="40" height="40" fill="none"/>
</g>
</svg>
