<?xml version="1.0" encoding="utf-8"?>
<!-- Generator: Adobe Illustrator 18.1.1, SVG Export Plug-In . SVG Version: 6.00 Build 0)  -->
<svg version="1.1" id="Layer_1" xmlns="http://www.w3.org/2000/svg" xmlns:xlink="http://www.w3.org/1999/xlink" x="0px" y="0px"
	 viewBox="-76.7 81 35.3 40" enable-background="new -76.7 81 35.3 40" xml:space="preserve">
<path d="M-46.5,109.8l-4.2-18.1c1.9-0.9,3.2-2.8,3.2-5.1c0-3.1-2.5-5.6-5.6-5.6c-3.1,0-5.6,2.5-5.6,5.6c0,1.2,0.4,2.3,1,3.2l-9.7,10
	c-1-0.9-2.3-1.5-3.8-1.5c-3.1,0-5.6,2.5-5.6,5.6s2.5,5.6,5.6,5.6c1.9,0,3.5-0.9,4.5-2.4l14.2,7.3c-0.1,0.3-0.1,0.6-0.1,1
	c0,3.1,2.5,5.6,5.6,5.6s5.6-2.5,5.6-5.6C-41.3,112.4-43.6,110-46.5,109.8 M-53.1,84.3c1.3,0,2.3,1.1,2.3,2.3c0,1.3-1,2.3-2.3,2.3
	c-1.3,0-2.3-1.1-2.3-2.3C-55.4,85.3-54.3,84.3-53.1,84.3 M-71.1,106.2c-1.3,0-2.3-1.1-2.3-2.3s1-2.3,2.3-2.3s2.3,1.1,2.3,2.3
	C-68.8,105.2-69.8,106.2-71.1,106.2 M-65.5,104C-65.5,104-65.5,103.9-65.5,104c0-0.4,0-0.8-0.1-1.2l10.6-11c0.3,0.1,0.7,0.2,1.1,0.3
	l4.3,18.4c-0.4,0.3-0.9,0.6-1.2,0.9L-65.5,104z M-46.9,117.7c-1.3,0-2.3-1.1-2.3-2.3c0-1.3,1-2.3,2.3-2.3s2.3,1.1,2.3,2.3
	C-44.6,116.7-45.6,117.7-46.9,117.7"/>
</svg>
