<?xml version="1.0" encoding="utf-8"?>
<!-- Generator: Adobe Illustrator 19.2.1, SVG Export Plug-In . SVG Version: 6.00 Build 0)  -->
<svg version="1.1" id="Layer_1" xmlns="http://www.w3.org/2000/svg" xmlns:xlink="http://www.w3.org/1999/xlink" x="0px" y="0px"
	 viewBox="37.6 13.2 536.9 619" enable-background="new 37.6 13.2 536.9 619" xml:space="preserve">
<path d="M41.9,150.2l260.9,122.6c1,0.5,2.1,0.7,3.2,0.7s2.2-0.2,3.2-0.7l260.9-122.6c2.7-1.2,4.4-3.9,4.4-6.9c0-2.9-1.7-5.6-4.4-6.9
	L309.2,13.9c-2-1-4.4-1-6.4,0L41.9,136.5c-2.7,1.2-4.4,3.9-4.4,6.9C37.6,146.3,39.3,149,41.9,150.2z"/>
<path d="M570.1,315.9l-128.3-60.6c-2-1-4.4-1-6.4,0l-124.1,58.1c-0.3,0.1-0.5,0.1-0.8,0.2c-2.1,0.5-3.2,0.8-4.5,0.8
	c-1.2,0-3.1,0-3.7-0.2c-0.3-0.2-0.6-0.3-0.9-0.5l-124.7-58.4c-2-1-4.4-1-6.4,0L41.9,315.9c-2.7,1.3-4.3,3.9-4.3,6.9
	c0,2.9,1.7,5.6,4.4,6.8l260.9,122.6c1,0.5,2.1,0.7,3.2,0.7s2.2-0.2,3.2-0.7l260.9-122.6c2.7-1.2,4.3-3.9,4.4-6.8
	C574.4,319.8,572.7,317.1,570.1,315.9z"/>
<path d="M570.1,495.2l-128.3-60.6c-2-1-4.4-1-6.4,0l-124.1,58.1c-0.3,0.1-0.5,0.1-0.8,0.2c-2.1,0.5-3.2,0.8-4.5,0.8
	c-1.2,0-3.1,0-3.7-0.2c-0.3-0.2-0.6-0.3-0.9-0.5l-124.7-58.4c-2-1-4.4-1-6.4,0L41.9,495.2c-2.7,1.3-4.3,3.9-4.3,6.9
	c0,2.9,1.7,5.6,4.4,6.8l260.9,122.6c1,0.5,2.1,0.7,3.2,0.7s2.2-0.2,3.2-0.7l260.9-122.6c2.7-1.2,4.3-3.9,4.4-6.8
	C574.4,499.1,572.7,496.4,570.1,495.2z"/>
</svg>
