<?xml version="1.0" encoding="utf-8"?>
<!-- Generator: Adobe Illustrator 18.1.1, SVG Export Plug-In . SVG Version: 6.00 Build 0)  -->
<svg version="1.1" id="Layer_1" xmlns="http://www.w3.org/2000/svg" xmlns:xlink="http://www.w3.org/1999/xlink" x="0px" y="0px"
     width="35px" height="35px" viewBox="-292.5 379.5 35 35" enable-background="new -292.5 379.5 35 35" xml:space="preserve">
<path d="M-259.5,397c0-0.4-0.2-0.7-0.5-0.9l0,0l-6.1-2.9l6.1-2.9c0.3-0.2,0.5-0.5,0.5-0.9c0-0.4-0.2-0.7-0.5-0.9l0,0l-14.5-6.8l0,0
    c-0.3-0.1-0.6-0.1-0.8,0l-14.5,6.8l0,0c-0.5,0.2-0.7,0.5-0.7,0.9c0,0.4,0.2,0.7,0.5,0.9l0,0l6.1,2.9l-6.1,2.9
    c-0.3,0.2-0.5,0.5-0.5,0.9c0,0.4,0.2,0.7,0.5,0.9l0,0l6.1,2.9l-6.1,2.9c-0.3,0.2-0.5,0.5-0.5,0.9c0,0.4,0.2,0.7,0.5,0.9l0,0
    l14.5,6.8c0.2,0.1,0.4,0.1,0.5,0.1s0.2,0,0.3-0.1c0,0,0,0,0.1,0l0,0l14.5-6.8c0.4-0.2,0.6-0.5,0.6-0.9c0-0.4-0.2-0.7-0.5-0.9l0,0
    l-6.1-2.9l6.1-2.9C-259.7,397.7-259.5,397.4-259.5,397z M-281.3,394.3l5.9,2.8c0.1,0.1,0.3,0.1,0.5,0.1c0.1,0,0.2,0,0.3-0.1
    c0,0,0,0,0.1,0l0,0l5.9-2.8l5.7,2.7l-12.1,5.7l-12-5.7L-281.3,394.3z M-275,395l-12-5.7l12-5.7l12,5.7L-275,395z M-281.3,402
    l5.9,2.8c0.1,0.1,0.3,0.1,0.5,0.1c0.1,0,0.2,0,0.3-0.1c0,0,0,0,0.1,0l0,0l5.9-2.8l5.7,2.7l-12.1,5.7l-12-5.7L-281.3,402z"/>
</svg>
