<?xml version="1.0" encoding="utf-8"?>
<!-- Generator: Adobe Illustrator 19.2.1, SVG Export Plug-In . SVG Version: 6.00 Build 0)  -->
<svg version="1.1" id="Layer_1" xmlns="http://www.w3.org/2000/svg" xmlns:xlink="http://www.w3.org/1999/xlink" x="0px" y="0px"
	 viewBox="0 0 76 76" enable-background="new 0 0 76 76" xml:space="preserve">
<path d="M74.8,33.5l-6.9-1.3c-0.3-1.5-0.7-2.9-1.2-4.3l5.2-4.8c0.5-0.5,0.6-1.2,0.3-1.8l-2.9-5c-0.4-0.6-1.1-0.9-1.8-0.7L61,18
	c-1-1.1-2-2.2-3.1-3.1L60,8.1c0.2-0.7-0.1-1.4-0.7-1.7l-5-2.9c-0.6-0.4-1.4-0.2-1.9,0.3l-4.5,5.3c-1.4-0.5-2.8-0.9-4.3-1.1l-1.6-6.9
	C41.9,0.5,41.3,0,40.7,0h-5.7c-0.7,0-1.3,0.5-1.4,1.2l-1.3,6.9c-1.5,0.3-2.9,0.7-4.3,1.2L23.1,4c-0.5-0.5-1.2-0.6-1.8-0.3l-5,2.9
	c-0.6,0.4-0.9,1.1-0.7,1.8L18,15c-1.1,1-2.2,2-3.1,3.1L8.1,16c-0.7-0.2-1.4,0.1-1.7,0.7l-2.9,5c-0.4,0.6-0.2,1.4,0.3,1.9l5.3,4.5
	c-0.5,1.4-0.9,2.8-1.1,4.3l-6.9,1.6C0.5,34.1,0,34.7,0,35.3v5.7c0,0.7,0.5,1.3,1.2,1.4l6.9,1.3c0.3,1.5,0.7,2.9,1.2,4.3L4,52.9
	c-0.5,0.5-0.6,1.2-0.3,1.8l2.9,5c0.4,0.6,1.1,0.9,1.8,0.7L15,58c1,1.1,2,2.2,3.1,3.1L16,67.9c-0.2,0.7,0.1,1.4,0.7,1.7l5,2.9
	c0.6,0.4,1.4,0.2,1.9-0.3l4.5-5.3c1.4,0.5,2.8,0.9,4.3,1.1l1.6,6.9c0.2,0.7,0.7,1.1,1.4,1.1h5.7c0.7,0,1.3-0.5,1.4-1.2l1.3-6.9
	c1.5-0.3,2.9-0.7,4.3-1.2l4.8,5.2c0.5,0.5,1.2,0.6,1.8,0.3l5-2.9c0.6-0.4,0.9-1.1,0.7-1.8L58,61c1.1-1,2.2-2,3.1-3.1l6.8,2.1
	c0.7,0.2,1.4-0.1,1.7-0.7l2.9-5c0.4-0.6,0.2-1.4-0.3-1.9l-5.3-4.5c0.5-1.4,0.9-2.8,1.1-4.3l6.9-1.6c0.7-0.2,1.1-0.7,1.1-1.4v-5.7
	C76,34.2,75.5,33.6,74.8,33.5 M38,55c-9.4,0-17-7.6-17-17s7.6-17,17-17s17,7.6,17,17S47.4,55,38,55"/>
</svg>
