<?xml version="1.0" encoding="utf-8"?>
<!-- Generator: Adobe Illustrator 19.2.1, SVG Export Plug-In . SVG Version: 6.00 Build 0)  -->
<!DOCTYPE svg PUBLIC "-//W3C//DTD SVG 1.1//EN" "http://www.w3.org/Graphics/SVG/1.1/DTD/svg11.dtd">
<svg version="1.1" xmlns="http://www.w3.org/2000/svg" xmlns:xlink="http://www.w3.org/1999/xlink" x="0px" y="0px"
	 viewBox="0 0 40 40" style="enable-background:new 0 0 40 40;" xml:space="preserve">
<style type="text/css">
	.st0{fill:none;}
</style>
<g id="Tags">
	<g>
		<path d="M10.1,10.1c-1.5,1.5-1.5,3.9,0,5.4c0.7,0.7,1.7,1.1,2.7,1.1c1,0,1.9-0.4,2.7-1.1c1.5-1.5,1.5-3.9,0-5.4
			C14,8.6,11.6,8.6,10.1,10.1z M14.2,12.8c0,0.4-0.1,0.7-0.4,1l0,0c-0.3,0.3-0.6,0.4-1,0.4c0,0,0,0,0,0c-0.4,0-0.7-0.1-1-0.4
			c-0.3-0.3-0.4-0.6-0.4-1c0-0.4,0.1-0.7,0.4-1c0.3-0.3,0.6-0.4,1-0.4c0.4,0,0.7,0.1,1,0.4C14.1,12.1,14.2,12.4,14.2,12.8z"/>
		<path d="M37.4,21l-16-16c-0.3-0.4-0.8-0.6-1.3-0.6L6,4C5.5,4,5,4.2,4.7,4.5L4.6,4.6C4.2,5,4,5.5,4,6l0.4,14.1c0,0.5,0.2,1,0.6,1.3
			l16,16c0.4,0.4,0.8,0.6,1.3,0.6c0,0,0,0,0,0c0.5,0,1-0.2,1.3-0.5l13.8-13.8c0.4-0.4,0.6-0.8,0.5-1.4C37.9,21.8,37.7,21.3,37.4,21z
			 M35.4,22.3L22.3,35.4L6.8,19.9L6.5,6.5l13.4,0.4L35.4,22.3z"/>
	</g>
</g>
<g id="_x34_0x40">
	<rect class="st0" width="40" height="40" fill="none"/>
</g>
</svg>
