<?xml version="1.0" encoding="utf-8"?>
<!-- Generator: Adobe Illustrator 18.1.1, SVG Export Plug-In . SVG Version: 6.00 Build 0)  -->
<svg version="1.1" id="Layer_1" xmlns="http://www.w3.org/2000/svg" xmlns:xlink="http://www.w3.org/1999/xlink" x="0px" y="0px"
	 viewBox="35 -0.3 130 200.5" enable-background="new 35 -0.3 130 200.5" xml:space="preserve">
<g>
	<ellipse fill="none" cx="60.5" cy="174.7" rx="10" ry="10.5"/>
	<ellipse fill="none" cx="140.5" cy="24.7" rx="10" ry="10.5"/>
	<path d="M140.5-0.3c-13.5,0-25,11-25,25c0,11,7.5,20.5,17.5,24l-0.5,53.5l-60,51.5c-3.5-2-8-3.5-12.5-3.5c-13.5,0-25,11-25,25
		s11,25,25,25s25-11,25-25c0-4-1-7.5-2.5-10.5l64.5-55.5l0.5-60c10-3,17.5-12.5,17.5-24C165.5,10.7,154-0.3,140.5-0.3z M60.5,185.2
		c-5.5,0-10-4.5-10-10.5s4.5-10.5,10-10.5s10,4.5,10,10.5S66,185.2,60.5,185.2z M140.5,35.2c-5.5,0-10-4.5-10-10.5s4.5-10.5,10-10.5
		c5.5,0,10,4.5,10,10.5S146,35.2,140.5,35.2z"/>
</g>
</svg>
