<?xml version="1.0" encoding="utf-8"?>
<!-- Generator: Adobe Illustrator 16.0.0, SVG Export Plug-In . SVG Version: 6.00 Build 0)  -->
<!DOCTYPE svg PUBLIC "-//W3C//DTD SVG 1.1//EN" "http://www.w3.org/Graphics/SVG/1.1/DTD/svg11.dtd">
<svg version="1.1" id="Layer_1" xmlns="http://www.w3.org/2000/svg" xmlns:xlink="http://www.w3.org/1999/xlink" x="0px" y="0px"
	 width="40px" height="45px" viewBox="55 52.5 40 45" enable-background="new 55 52.5 40 45" xml:space="preserve">
<path d="M94.135,77.903c-0.227-0.729-0.998-1.135-1.725-0.908l-7.194,2.232l-7.561-4.362l7.561-4.363l7.194,2.232
	c0.137,0.042,0.273,0.062,0.408,0.062c0.588,0,1.133-0.379,1.316-0.972c0.227-0.727-0.181-1.499-0.908-1.724l-4.756-1.477
	l5.036-2.907c0.66-0.379,0.887-1.224,0.505-1.882c-0.379-0.66-1.222-0.886-1.881-0.505l-5.145,2.967l0.98-4.952
	c0.148-0.748-0.338-1.472-1.084-1.62c-0.746-0.146-1.472,0.337-1.619,1.085l-1.45,7.318l-7.538,4.35v-8.761l5.798-5.801
	c0.54-0.539,0.54-1.41,0-1.949c-0.536-0.538-1.41-0.538-1.947,0l-3.852,3.851v-5.632c0-0.763-0.617-1.379-1.377-1.379
	c-0.764,0-1.379,0.617-1.379,1.379v5.632l-3.851-3.851c-0.538-0.538-1.412-0.538-1.949,0c-0.539,0.539-0.539,1.411,0,1.949
	l5.8,5.801v8.761l-7.539-4.35l-1.449-7.318c-0.147-0.748-0.873-1.232-1.62-1.085c-0.748,0.148-1.233,0.873-1.085,1.62l0.981,4.952
	l-5.144-2.967c-0.659-0.381-1.502-0.154-1.883,0.505c-0.379,0.659-0.153,1.503,0.506,1.882l5.037,2.907l-4.758,1.478
	c-0.727,0.225-1.134,0.997-0.908,1.724c0.183,0.592,0.728,0.971,1.315,0.971c0.136,0,0.273-0.02,0.41-0.062l7.192-2.232l7.561,4.362
	l-7.561,4.363l-7.192-2.233c-0.728-0.227-1.501,0.18-1.726,0.908c-0.226,0.726,0.181,1.499,0.907,1.725l4.757,1.478l-5.037,2.905
	c-0.66,0.382-0.886,1.225-0.506,1.884c0.255,0.441,0.719,0.688,1.196,0.688c0.233,0,0.471-0.059,0.688-0.184l5.143-2.968
	l-0.981,4.952c-0.149,0.747,0.337,1.472,1.084,1.62c0.091,0.019,0.181,0.025,0.27,0.025c0.645,0,1.221-0.454,1.351-1.109
	l1.449-7.319l7.539-4.349v8.761l-5.8,5.8c-0.539,0.539-0.539,1.41,0,1.95c0.538,0.538,1.412,0.538,1.949,0l3.851-3.852v5.634
	c0,0.762,0.616,1.377,1.379,1.377c0.761,0,1.377-0.618,1.377-1.377v-5.634l3.852,3.852c0.269,0.27,0.621,0.403,0.973,0.403
	c0.353,0,0.705-0.134,0.974-0.403c0.54-0.54,0.54-1.411,0-1.95l-5.798-5.8v-8.761l7.538,4.351l1.45,7.317
	c0.129,0.656,0.705,1.11,1.35,1.11c0.088,0,0.18-0.007,0.269-0.026c0.748-0.148,1.232-0.873,1.085-1.619l-0.981-4.952L92.13,86.4
	c0.218,0.125,0.454,0.185,0.686,0.185c0.477,0,0.942-0.248,1.195-0.689c0.38-0.658,0.155-1.501-0.505-1.884l-5.036-2.905
	l4.756-1.477C93.954,79.402,94.361,78.629,94.135,77.903z"/>
</svg>
