<?xml version="1.0" encoding="utf-8"?>
<!-- Generator: Adobe Illustrator 19.2.1, SVG Export Plug-In . SVG Version: 6.00 Build 0)  -->
<!DOCTYPE svg PUBLIC "-//W3C//DTD SVG 1.1//EN" "http://www.w3.org/Graphics/SVG/1.1/DTD/svg11.dtd">
<svg version="1.1" xmlns="http://www.w3.org/2000/svg" xmlns:xlink="http://www.w3.org/1999/xlink" x="0px" y="0px"
	 viewBox="0 0 40 40" style="enable-background:new 0 0 40 40;" xml:space="preserve">
<style type="text/css">
	.st0{fill:none;}
</style>
<g id="Contact">
	<g>
		<path d="M34.3,3H8.6C7.2,3,5.9,4.2,5.9,5.7v4.4c0,0.6,0.5,1.2,1.2,1.2s1.2-0.5,1.2-1.2V5.7c0-0.2,0.1-0.3,0.3-0.3h25.7
			c0.2,0,0.3,0.1,0.3,0.3v28.6c0,0.2-0.1,0.3-0.3,0.3H8.6c-0.2,0-0.3-0.1-0.3-0.3v-4.4c0-0.6-0.5-1.2-1.2-1.2s-1.2,0.5-1.2,1.2v4.4
			c0,1.5,1.2,2.7,2.7,2.7h25.7c1.5,0,2.7-1.2,2.7-2.7V5.7C37,4.2,35.8,3,34.3,3z"/>
		<path d="M13.5,27.5v1.1h16.4v-1.1c0-2.7-1.8-5-4.5-6.1c1.3-1.1,2.1-2.6,2.1-4.4c0-3.2-2.6-5.7-5.7-5.7c-3.2,0-5.7,2.5-5.7,5.7
			c0,1.8,0.8,3.4,2.1,4.4C15.4,22.6,13.5,24.9,13.5,27.5z M21.7,13.5c2,0,3.6,1.6,3.6,3.6c0,2-1.6,3.6-3.6,3.6c-2,0-3.6-1.6-3.6-3.6
			C18.1,15.1,19.7,13.5,21.7,13.5z M27.5,26.5H15.8c0.6-2,3.1-3.6,5.8-3.6C24.5,22.9,26.9,24.4,27.5,26.5z"/>
		<path d="M4.2,16.6h5.5c0.7,0,1.2-0.5,1.2-1.2s-0.5-1.2-1.2-1.2H4.2c-0.7,0-1.2,0.5-1.2,1.2S3.6,16.6,4.2,16.6z"/>
		<path d="M4.2,21.5h5.5c0.7,0,1.2-0.5,1.2-1.2s-0.5-1.2-1.2-1.2H4.2c-0.7,0-1.2,0.5-1.2,1.2S3.6,21.5,4.2,21.5z"/>
		<path d="M10.9,25.3c0-0.6-0.5-1.2-1.2-1.2H4.2c-0.7,0-1.2,0.5-1.2,1.2c0,0.6,0.5,1.2,1.2,1.2h5.5C10.4,26.5,10.9,25.9,10.9,25.3z"
			/>
	</g>
</g>
<g id="_x34_0x40">
	<rect class="st0" width="40" height="40" fill="none"/>
</g>
</svg>
