<?xml version="1.0" encoding="utf-8"?>
<!-- Generator: Adobe Illustrator 19.2.1, SVG Export Plug-In . SVG Version: 6.00 Build 0)  -->
<svg version="1.1" id="Layer_1" xmlns="http://www.w3.org/2000/svg" xmlns:xlink="http://www.w3.org/1999/xlink" x="0px" y="0px"
	 viewBox="0 0 78 68.5" enable-background="new 0 0 78 68.5" xml:space="preserve">
<path d="M69.4,10.6H53.8l-3.6-8.1l-0.1-0.1c-0.8-1.4-2.4-2.3-4-2.3H31.9c-0.9,0-1.7,0.3-2.5,0.7c-0.1,0.1-0.2,0.2-0.4,0.2
	c-0.5,0.4-0.9,0.8-1.2,1.4l-3.7,8.3H8.6c-4.7,0-8.6,3.8-8.6,8.6V60c0,4.7,3.8,8.6,8.6,8.6h60.9c4.7,0,8.6-3.8,8.6-8.6V19.2
	C78,14.5,74.2,10.6,69.4,10.6 M33.1,6.4h11.8l1.7,4.2H31.4L33.1,6.4z M38,56.7c-9.4,0-17.1-7.7-17.1-17.1c0-9.4,7.7-17.1,17.1-17.1
	c9.4,0,17.1,7.7,17.1,17.1C55.1,49,47.4,56.7,38,56.7 M65.7,24.5h-5.9c-1.1,0-1.9-0.9-1.9-1.9s0.9-1.9,1.9-1.9h5.9
	c1.1,0,1.9,0.9,1.9,1.9S66.8,24.5,65.7,24.5"/>
<path d="M38,27.2c-6.8,0-12.4,5.5-12.4,12.4c0,6.8,5.5,12.4,12.4,12.4c6.8,0,12.4-5.5,12.4-12.4C50.4,32.7,44.8,27.2,38,27.2"/>
</svg>
