<?xml version="1.0" encoding="utf-8"?>
<!-- Generator: Adobe Illustrator 19.2.1, SVG Export Plug-In . SVG Version: 6.00 Build 0)  -->
<!DOCTYPE svg PUBLIC "-//W3C//DTD SVG 1.1//EN" "http://www.w3.org/Graphics/SVG/1.1/DTD/svg11.dtd">
<svg version="1.1" xmlns="http://www.w3.org/2000/svg" xmlns:xlink="http://www.w3.org/1999/xlink" x="0px" y="0px"
     viewBox="0 0 40 40" style="enable-background:new 0 0 40 40;" xml:space="preserve">
<style type="text/css">
    .st0{fill:none;}
</style>
<g id="News">
    <g>
        <path d="M35.1,8h-2.5c-0.1-2.7-1-5-5.2-5H7.9C5.6,3,3.7,4.9,3.7,7.2v25.2c0,2.5,2,4.5,4.5,4.5c0.2,0,0.5,0,0.7-0.1h22.2
            c2.9,0,5.2-2.4,5.2-5.3V9.2C36.3,8.5,35.8,8,35.1,8z M31.1,34.5H12.6c0.5-0.8,0.8-1.8,0.8-2.8V10.4h20.5v21c0,0.1-0.1,0.2-0.1,0.3
            C33.9,33.3,32.7,34.5,31.1,34.5z M6.1,7.2c0-1,0.8-1.8,1.8-1.8h19.4c2.1,0,2.7,0.3,2.8,2.5h-18C11.5,8,11,8.5,11,9.2v22.5
            c0,1.6-1.2,2.8-2.8,2.8c-1.1,0-2.1-1-2.1-2.1V7.2z"/>
        <path d="M29.9,26.5H16.8c-0.7,0-1.2,0.5-1.2,1.2c0,0.7,0.5,1.2,1.2,1.2h13.1c0.7,0,1.2-0.5,1.2-1.2C31.1,27,30.6,26.5,29.9,26.5z"
            />
        <path d="M29.9,20.8H16.8c-0.7,0-1.2,0.5-1.2,1.2c0,0.7,0.5,1.2,1.2,1.2h13.1c0.7,0,1.2-0.5,1.2-1.2C31.1,21.3,30.6,20.8,29.9,20.8
            z"/>
        <path d="M29.9,15.1H16.8c-0.7,0-1.2,0.5-1.2,1.2c0,0.7,0.5,1.2,1.2,1.2h13.1c0.7,0,1.2-0.5,1.2-1.2C31.1,15.6,30.6,15.1,29.9,15.1
            z"/>
    </g>
</g>
<g id="_x34_0x40">
    <rect class="st0" width="40" height="40" fill="none"/>
</g>
</svg>
