<?xml version="1.0" encoding="utf-8"?>
<!-- Generator: Adobe Illustrator 19.2.1, SVG Export Plug-In . SVG Version: 6.00 Build 0)  -->
<svg version="1.1" id="Layer_1" xmlns="http://www.w3.org/2000/svg" xmlns:xlink="http://www.w3.org/1999/xlink" x="0px" y="0px"
	 viewBox="0 0 76.2 61.8" enable-background="new 0 0 76.2 61.8" xml:space="preserve">
<path d="M52.1,34.9c1.5,0.6,3.2,1,5,1c1.8,0,3.5-0.4,5.1-1c4.8-2,8.1-6.7,8.1-12.2c0-7.3-5.9-13.2-13.2-13.2
	c-7.3,0-13.2,5.9-13.2,13.2C43.9,28.2,47.3,32.9,52.1,34.9"/>
<path d="M66.1,37.9c-2.6,1.7-5.7,2.7-9,2.7c-3.2,0-6.3-1-8.8-2.6c-1.3,0.8-2.5,1.7-3.5,2.8c4.1,8.1,4.5,17.9,4.5,21h26.9
	C76.1,61.8,76.9,43.8,66.1,37.9"/>
<path d="M16.6,30c1.8,0.8,3.8,1.2,5.9,1.2c2.1,0,4.2-0.4,6-1.2c5.6-2.4,9.6-7.9,9.6-14.4C38.1,7,31.1,0,22.5,0S6.9,7,6.9,15.6
	C6.9,22.1,10.9,27.7,16.6,30"/>
<path d="M33.1,33.6c-3,2-6.7,3.2-10.6,3.2c-3.8,0-7.4-1.1-10.4-3.1C-0.2,40.7,0,61.8,0,61.8h38.1H45c0,0,0.4-9-2.9-17.2
	C40.4,40.2,37.6,36,33.1,33.6"/>
</svg>
