<?xml version="1.0" encoding="utf-8"?>
<!-- Generator: Adobe Illustrator 19.2.1, SVG Export Plug-In . SVG Version: 6.00 Build 0)  -->
<!DOCTYPE svg PUBLIC "-//W3C//DTD SVG 1.1//EN" "http://www.w3.org/Graphics/SVG/1.1/DTD/svg11.dtd">
<svg version="1.1" xmlns="http://www.w3.org/2000/svg" xmlns:xlink="http://www.w3.org/1999/xlink" x="0px" y="0px"
	 viewBox="0 0 40 40" style="enable-background:new 0 0 40 40;" xml:space="preserve">
<style type="text/css">
	.st0{fill:none;}
</style>
<g id="Files">
	<g>
		<path d="M26.6,21.6H13.4c-0.6,0-1.1,0.5-1.1,1.1c0,0.6,0.5,1.1,1.1,1.1h13.2c0.6,0,1.1-0.5,1.1-1.1C27.7,22.1,27.2,21.6,26.6,21.6
			z"/>
		<path d="M26.6,15.8H13.4c-0.6,0-1.1,0.5-1.1,1.1c0,0.6,0.5,1.1,1.1,1.1h13.2c0.6,0,1.1-0.5,1.1-1.1C27.7,16.3,27.2,15.8,26.6,15.8
			z"/>
		<path d="M26.6,27.5H13.4c-0.6,0-1.1,0.5-1.1,1.1c0,0.6,0.5,1.1,1.1,1.1h13.2c0.6,0,1.1-0.5,1.1-1.1C27.7,28,27.2,27.5,26.6,27.5z"
			/>
		<path d="M31.1,3H14.5c0,0,0,0,0,0c0,0,0,0,0,0c-0.4,0-0.7,0.2-0.9,0.5l-7.8,7.9c-0.2,0.2-0.3,0.5-0.3,0.8v21.4
			c0,1.9,1.5,3.5,3.5,3.5h22.3c1.9,0,3.5-1.5,3.5-3.5V6.5C34.6,4.5,33.1,3,31.1,3z M13.4,6.9v3c0,0.7-0.5,1.2-1.2,1.2H9.2L13.4,6.9z
			 M32.3,33.5c0,0.7-0.5,1.2-1.2,1.2H8.9c-0.7,0-1.2-0.5-1.2-1.2V13.3h4.5c1.9,0,3.5-1.5,3.5-3.5V5.3h15.5c0.7,0,1.2,0.5,1.2,1.2
			V33.5z"/>
	</g>
</g>
<g id="_x34_0x40">
	<rect class="st0" width="40" height="40" fill="none"/>
</g>
</svg>
