<?xml version="1.0" encoding="utf-8"?>
<!-- Generator: Adobe Illustrator 19.2.1, SVG Export Plug-In . SVG Version: 6.00 Build 0)  -->
<!DOCTYPE svg PUBLIC "-//W3C//DTD SVG 1.1//EN" "http://www.w3.org/Graphics/SVG/1.1/DTD/svg11.dtd">
<svg version="1.1" xmlns="http://www.w3.org/2000/svg" xmlns:xlink="http://www.w3.org/1999/xlink" x="0px" y="0px"
	 viewBox="0 0 40 40" style="enable-background:new 0 0 40 40;" xml:space="preserve">
<style type="text/css">
	.st0{fill:none;}
</style>
<g id="Store">
	<path d="M31,28.5H12.1c-1,0-1.8-0.8-1.8-1.8v-2.3c0.6,0.3,1.2,0.4,1.8,0.4H32c2.4,0,4.3-1.9,4.3-4.3l0-6c0,0,0-0.1,0-0.1
		c0,0,0-0.1,0-0.1c0,0,0-0.1,0-0.1c0,0,0-0.1,0-0.1c0,0,0-0.1-0.1-0.1c0,0,0-0.1-0.1-0.1c0,0,0-0.1-0.1-0.1c0,0-0.1-0.1-0.1-0.1
		c0,0-0.1-0.1-0.1-0.1c0,0-0.1,0-0.1-0.1c0,0-0.1,0-0.1-0.1c0,0-0.1,0-0.1-0.1c0,0-0.1,0-0.1,0c0,0-0.1,0-0.1,0l-25-3.4V6.5
		c0-0.1,0-0.2,0-0.2c0,0,0-0.1,0-0.1c0,0,0-0.1,0-0.1c0,0,0-0.1-0.1-0.1c0,0,0-0.1-0.1-0.1c0,0,0-0.1-0.1-0.1c0,0,0-0.1-0.1-0.1
		c0,0-0.1,0-0.1-0.1c0,0-0.1,0-0.1-0.1c-0.1,0-0.1-0.1-0.2-0.1L4,3.1c-0.6-0.3-1.4,0-1.6,0.7c-0.1,0.3-0.1,0.6,0,1
		C2.5,5,2.8,5.3,3.1,5.4l4.7,2v19.3c0,2,1.5,3.8,3.4,4.2c-0.3,0.6-0.4,1.2-0.4,1.9c0,2.4,1.9,4.3,4.3,4.3s4.3-1.9,4.3-4.3
		c0-0.6-0.1-1.2-0.4-1.8h8.2c-0.3,0.6-0.4,1.2-0.4,1.8c0,2.4,1.9,4.3,4.3,4.3c2.4,0,4.3-1.9,4.3-4.3C35.3,30.4,33.4,28.5,31,28.5z
		 M32.8,32.7c0,1-0.8,1.8-1.8,1.8c-1,0-1.8-0.8-1.8-1.8c0-0.5,0.2-0.9,0.5-1.3c0.3-0.3,0.8-0.5,1.3-0.5C32,30.9,32.8,31.7,32.8,32.7
		z M16.8,32.7c0,1-0.8,1.8-1.8,1.8s-1.8-0.8-1.8-1.8c0-1,0.8-1.8,1.8-1.8S16.8,31.7,16.8,32.7z M10.3,20.4v-8.1l23.5,3.2v4.9
		c0,1-0.8,1.8-1.8,1.8H12.1C11.1,22.3,10.3,21.4,10.3,20.4z M9.9,6.3L9.9,6.3L9.9,6.3L9.9,6.3z M9.8,6.1L9.8,6.1L9.8,6.1L9.8,6.1z
		 M9.6,5.8L9.6,5.8L9.6,5.8L9.6,5.8z"/>
</g>
<g id="_x34_0x40">
	<rect class="st0" width="40" height="40" fill="none"/>
</g>
</svg>
