<?xml version="1.0" encoding="utf-8"?>
<!-- Generator: Adobe Illustrator 18.1.1, SVG Export Plug-In . SVG Version: 6.00 Build 0)  -->
<svg version="1.1" id="Layer_1" xmlns="http://www.w3.org/2000/svg" xmlns:xlink="http://www.w3.org/1999/xlink" x="0px" y="0px"
	 width="35px" height="35px" viewBox="-292.5 379.5 35 35" enable-background="new -292.5 379.5 35 35" xml:space="preserve">
<g>
	<path d="M-260.8,404L-260.8,404L-260.8,404c0-0.1,0-0.2,0-0.2l0,0v-0.1c0,0,0-0.1-0.1-0.1c0,0,0,0-0.1-0.1c0,0,0-0.1-0.1-0.1
		l-3.6-3.6v-6.9c0-5.3-4.1-9.8-9.3-10.3v-1.9c0-0.6-0.5-1.2-1.2-1.2c-0.6,0-1.2,0.5-1.2,1.2v2c-5.2,0.6-9.3,5-9.3,10.3v7.2l-3.3,3.3
		c0,0,0,0.1-0.1,0.2c0,0,0,0,0,0.1c0,0.1,0,0.1-0.1,0.2c0,0.1,0,0.1,0,0.2v4.8c0,0.6,0.5,1.2,1.2,1.2h7.4c0.6,2.4,2.8,4.3,5.3,4.3
		c2.7,0,4.9-1.9,5.3-4.3h7.8c0.6,0,1.2-0.5,1.2-1.2L-260.8,404C-260.8,404.2-260.8,404.2-260.8,404z M-275.1,412.1
		c-1.4,0-2.6-0.8-3-2.1h5.9C-272.7,411.2-273.8,412.1-275.1,412.1z M-263.1,407.8h-23.7v-3.1l3.3-3.3l0.1-0.1c0,0,0-0.1,0.1-0.1
		c0,0,0-0.1,0.1-0.1c0,0,0,0,0-0.1c0,0,0,0,0-0.1v-0.1c0-0.1,0-0.1,0-0.2v-7.7c0-4.4,3.6-8.1,8.1-8.1c4.4,0,8.1,3.6,8.1,8.1v7.3v0.1
		v0.1v0.1c0,0,0,0,0,0.1c0,0,0,0,0,0.1s0.1,0.2,0.2,0.3l0,0l3.6,3.6V407.8L-263.1,407.8z"/>
	<path d="M-266.7,401.1L-266.7,401.1C-266.7,401-266.7,401-266.7,401.1C-266.7,401-266.7,401-266.7,401.1z"/>
</g>
</svg>
