<?xml version="1.0" encoding="utf-8"?>
<!-- Generator: Adobe Illustrator 18.1.1, SVG Export Plug-In . SVG Version: 6.00 Build 0)  -->
<svg version="1.1" id="Layer_1" xmlns="http://www.w3.org/2000/svg" xmlns:xlink="http://www.w3.org/1999/xlink" x="0px" y="0px"
     width="35px" height="35px" viewBox="-292.5 379.5 35 35" enable-background="new -292.5 379.5 35 35" xml:space="preserve">
<path d="M-261.4,395.7c-0.6-1.1-1.5-1.9-2.3-2.5c-0.1-0.1-0.1-0.2-0.2-0.4c0-0.3,0.1-0.5,0.2-0.7c1-1.1,1.4-2.3,1.4-3.6
    c0-3-2.4-5.4-5.4-5.4c-1.4,0-2.6,0.5-3.6,1.4c-1.1-0.8-2.4-1.4-3.8-1.4c-1.4,0-2.6,0.4-3.6,1.3c-1-0.8-2.2-1.3-3.5-1.3
    c-3.1,0-5.5,2.4-5.5,5.4c0,1.4,0.5,2.6,1.4,3.6c0.1,0.2,0.2,0.4,0.2,0.7c0,0.2-0.1,0.3-0.2,0.4c-1,0.6-1.7,1.5-2.3,2.5
    c-1.4,2.1-2.2,5-2.2,7.4c0,1.2,0.4,2.2,1.4,3.2c1.2,1.2,3.3,1.9,5.9,2c0.1,0.2,0.2,0.3,0.4,0.5c1.5,1.4,4.4,2.2,7.9,2.2
    c3.6,0,6.8-0.8,8.1-2.2c0.2-0.2,0.3-0.3,0.4-0.5c2.9-0.2,5.2-1,6.2-2c0.8-1,1.4-2,1.4-3.2C-259.2,400.6-260,397.9-261.4,395.7z
     M-268.1,406.5c-0.1,0.2-0.3,0.5-0.4,0.7c0,0,0,0.1-0.1,0.1c-0.3,0.3-0.6,0.5-1.2,0.7c-1.3,0.5-3.3,0.8-5.4,0.8
    c-2.1,0-4.1-0.3-5.4-0.8c-0.4-0.1-0.8-0.4-1.2-0.7c-0.2-0.2-0.4-0.5-0.6-0.8c-0.1-0.3-0.1-0.7-0.1-1.1c0-4.8,2.3-7.9,4.4-9.4
    c0.4-0.3,0.8-0.5,1.5-0.7c0.4-0.2,1-0.3,1.4-0.3c0.5,0,1.1,0.1,1.7,0.3c0.5,0.2,1.1,0.4,1.5,0.8l0,0c2.6,1.9,4.2,5.4,4.2,9.3
    C-267.9,405.7-267.9,406.1-268.1,406.5z M-275.3,392.6c-2.1,0-3.8-1.7-3.8-3.8c0-2,1.7-3.7,3.8-3.8c2.1,0,3.8,1.7,3.8,3.8
    C-271.5,390.9-273.2,392.6-275.3,392.6z M-284.7,406.1c-1.6-0.2-3-0.6-3.6-1.3c-0.5-0.4-0.7-1.1-0.7-1.7c0-5.8,3.8-9.4,6.6-9.4
    c0.7,0,1.6,0.3,2.4,0.7c-0.8,0.6-1.6,1.5-2.3,2.5c-1.6,2.4-2.4,5.5-2.4,8.2C-284.8,405.6-284.7,405.9-284.7,406.1z M-281.2,389
    c0,0.8,0.2,1.6,0.4,2.4c-0.4,0.3-1.1,0.4-1.7,0.4c-1,0-1.8-0.4-2.4-1.1c0-0.1-0.1-0.2-0.3-0.4c-0.4-0.5-0.6-1.2-0.6-1.9
    c0-1.9,1.6-3.5,3.5-3.5c0.8,0,1.5,0.2,2.1,0.7C-280.9,386.7-281.2,387.8-281.2,389z M-268.3,397.1c-0.7-1.1-1.4-1.8-2.1-2.4
    c1-0.5,1.8-0.8,2.6-0.8c1.4,0,3.1,1,4.3,2.5c1.5,1.8,2.3,4.2,2.3,6.9c0,0.6-0.2,1.3-0.7,1.7c-0.7,0.6-2.1,1.2-3.9,1.3
    c0-0.2,0.1-0.5,0.1-0.8C-265.8,402.5-266.7,399.5-268.3,397.1z M-265,390.4c-0.1,0.1-0.1,0.1-0.2,0.2c0,0.1-0.1,0.1-0.1,0.1
    c-0.6,0.6-1.5,1.1-2.4,1.1c-0.7,0-1.4-0.2-1.9-0.6c0.3-0.8,0.4-1.5,0.4-2.2c0-1.1-0.3-2.1-0.8-3.1c0.6-0.6,1.5-1,2.3-1
    c1.9,0,3.5,1.6,3.5,3.5C-264.4,389-264.6,389.8-265,390.4z"/>
</svg>
