<?xml version="1.0" encoding="utf-8"?>
<!-- Generator: Adobe Illustrator 17.0.0, SVG Export Plug-In . SVG Version: 6.00 Build 0)  -->
<!DOCTYPE svg PUBLIC "-//W3C//DTD SVG 1.1//EN" "http://www.w3.org/Graphics/SVG/1.1/DTD/svg11.dtd">
<svg version="1.1" id="Layer_1" xmlns="http://www.w3.org/2000/svg" xmlns:xlink="http://www.w3.org/1999/xlink" x="0px" y="0px"
	 width="40px" height="40px" viewBox="0 0 40 40" enable-background="new 0 0 40 40" xml:space="preserve">
<path d="M20,40l-1.099-1.1c-1.146-1.148-2.284-2.246-3.388-3.313C9.133,29.42,3.621,24.093,3.621,16.378
	C3.621,7.347,10.969,0,20,0s16.378,7.347,16.378,16.378c0,7.716-5.512,13.042-11.894,19.21c-1.103,1.067-2.24,2.166-3.386,3.312
	L20,40z M20,3.107c-7.318,0-13.271,5.954-13.271,13.271c0,6.397,4.83,11.065,10.945,16.975c0.762,0.737,1.541,1.489,2.327,2.262
	c0.786-0.772,1.564-1.523,2.326-2.261c6.115-5.91,10.945-10.577,10.945-16.976C33.271,9.06,27.317,3.107,20,3.107z M20,22.326
	c-3.034,0-5.502-2.489-5.502-5.547s2.468-5.547,5.502-5.547s5.502,2.489,5.502,5.547S23.034,22.326,20,22.326z M20,14.338
	c-1.32,0-2.394,1.095-2.394,2.44s1.074,2.44,2.394,2.44c1.319,0,2.394-1.095,2.394-2.44S21.319,14.338,20,14.338z"/>
</svg>
