<svg id="Layer_1" xmlns="http://www.w3.org/2000/svg" x="0px" y="0px" width="30px" height="30px" viewBox="0 0 30 30"><g><path d="M9.253,25.083c-0.083,0-0.162-0.033-0.22-0.091c-0.058-0.058-0.088-0.137-0.088-0.22l-1.862-12.49 c0-0.171,0.143-0.31,0.314-0.31H15h7.603c0.171,0,0.314,0.139,0.314,0.31l-1.863,12.49c0,0.083-0.03,0.162-0.088,0.22 c-0.058,0.058-0.137,0.091-0.22,0.091C20.747,25.083,9.253,25.083,9.253,25.083z"/><path d="M13.27,4.918c-0.171,0-0.311,0.139-0.311,0.311c0,0.636-1.144,1.509-1.795,1.509H6.591 c-0.171,0-0.311,0.139-0.311,0.311v1.819c0,0.171,0.139,0.311,0.311,0.311h16.818c0.171,0,0.311-0.139,0.311-0.311v-1.82 c0-0.171-0.139-0.311-0.311-0.311h-4.574c-0.65,0-1.795-0.873-1.795-1.509c0-0.171-0.139-0.311-0.311-0.311L13.27,4.918 L13.27,4.918z"/></g></svg>